<svg width="298" height="266" viewBox="0 0 298 266" fill="none" xmlns="http://www.w3.org/2000/svg">
<path d="M133.986 218.017C133.933 218.451 133.88 218.886 133.861 219.338C133.841 219.79 133.788 220.224 133.768 220.676C133.729 221.58 133.712 222.443 133.706 223.365C133.69 223.562 133.708 223.776 133.726 223.991C133.717 224.089 133.73 224.147 133.722 224.246C133.735 224.304 133.727 224.402 133.74 224.46C133.749 224.773 133.78 225.045 133.79 225.358C133.807 225.573 133.804 225.828 133.822 226.042C133.839 226.257 133.857 226.471 133.874 226.686C133.91 227.115 134 227.52 134.035 227.949C134.061 228.065 134.086 228.181 134.091 228.338C134.13 228.512 134.168 228.686 134.173 228.842C134.212 229.016 134.237 229.132 134.276 229.306C134.327 229.538 134.4 229.729 134.451 229.961C134.451 229.961 134.451 229.961 134.485 229.979C134.537 230.211 134.588 230.443 134.66 230.634C134.686 230.75 134.746 230.884 134.771 231C134.784 231.058 134.797 231.115 134.831 231.133C135.086 231.881 135.418 232.566 135.77 233.21C135.817 233.286 135.843 233.402 135.923 233.494C136.029 233.703 136.169 233.93 136.33 234.116C136.47 234.342 136.597 234.51 136.758 234.696C136.932 234.94 137.126 235.144 137.321 235.347C141.601 240.076 149.177 240.913 155.271 241.139C168.091 241.608 177.944 236.797 191.168 232.342C191.168 232.342 191.168 232.342 191.202 232.359C240.071 213.381 255.98 239.114 255.98 239.114C256.423 238.008 259.288 232.714 259.288 232.714C261.423 231.815 267.082 235.615 267.737 236.005C260.78 226.761 251.877 218.05 241.184 213.547C228.929 208.338 218.599 207.36 201.378 208.362C187.697 208.73 173.752 213.171 160.014 215.307C154.636 216.016 149.348 217.132 143.974 217.586C140.269 217.878 137.246 216.931 134.227 215.729C134.227 215.729 134.227 215.729 134.206 215.769C134.129 216.499 134.051 217.229 133.986 218.017Z" fill="url(#paint0_linear_279_12511)"/>
<path d="M194.178 131.34C193.934 131.316 194.358 131.61 194.127 131.644C193.718 131.69 193.275 131.717 192.824 131.844C192.285 131.975 187.861 133.096 187.259 133.35C187.205 133.373 191.013 132.447 190.959 132.47C190.411 132.7 189.898 132.948 189.33 133.219C189.275 133.242 189.165 133.288 189.09 133.352L189.035 133.375C188.665 133.594 188.315 133.773 187.924 134.032C187.794 134.119 187.684 134.165 187.554 134.251C187.293 134.425 187.421 133.919 187.127 134.074C187.017 134.12 186.532 134.903 186.422 134.949C186.216 135.1 185.969 134.801 185.763 134.951C185.481 135.164 185.173 135.792 184.891 136.006C183.73 136.843 182.473 137.784 181.283 138.76C180.699 139.228 180.148 139.713 179.564 140.181C179.337 140.372 179.131 140.522 178.938 140.73C178.387 141.215 177.836 141.7 177.307 142.145C176.454 142.884 175.634 143.641 174.848 144.416C174.752 144.52 174.655 144.624 174.546 144.67C174.277 144.941 174.029 145.173 173.781 145.404C173.63 145.531 173.512 145.675 173.361 145.802C173.113 146.033 172.865 146.265 172.617 146.496C172.079 147.039 171.562 147.542 171.045 148.044C170.777 148.316 170.508 148.588 170.239 148.859C170.163 148.923 170.121 149.004 170.067 149.027C169.894 149.194 169.722 149.362 169.55 149.53C169.377 149.697 169.205 149.865 169.033 150.032C168.647 150.449 168.281 150.824 167.916 151.2C167.798 151.344 167.647 151.471 167.55 151.576C167.378 151.743 167.185 151.951 167.012 152.119C166.84 152.286 166.723 152.431 166.605 152.575C166.412 152.784 166.239 152.951 166.046 153.159C165.702 153.494 165.391 153.847 165.08 154.2C164.866 154.448 164.652 154.697 164.459 154.905C164.341 155.049 164.224 155.194 164.127 155.298C163.989 155.483 163.837 155.61 163.72 155.755C163.506 156.003 163.291 156.252 163.098 156.46C162.905 156.668 162.766 156.853 162.649 156.998L162.628 157.038C162.158 157.616 161.742 158.172 161.272 158.75C160.995 159.12 160.685 159.473 160.408 159.843C160.152 160.172 159.875 160.542 159.619 160.872C159.086 161.572 158.574 162.231 158.041 162.931C157.999 163.012 157.902 163.116 157.839 163.237C157.562 163.607 157.265 164.018 156.988 164.388C156.925 164.51 156.828 164.614 156.732 164.718C156.572 164.943 156.413 165.169 156.22 165.377C156.081 165.562 155.943 165.747 155.804 165.932C155.624 166.198 155.431 166.406 155.25 166.672C154.856 167.187 154.474 167.76 154.08 168.274C153.983 168.378 153.899 168.54 153.803 168.644C153.165 169.547 152.548 170.408 151.944 171.328C151.923 171.369 151.882 171.45 151.827 171.473C151.349 172.149 150.904 172.843 150.46 173.538C150.12 174.029 149.814 174.538 149.474 175.03C148.766 176.152 148.023 177.257 147.349 178.397C147.547 178.345 147.545 180.576 147.588 179.186C149.504 178.42 148.308 179.196 151.08 177.761C151.19 177.715 151.6 178.087 151.6 178.087C152.093 177.88 151.706 177.396 151.87 177.327C152.089 177.235 152.552 177.465 152.771 177.373C153.373 177.119 153.36 178.143 154.743 176.919C156.179 176.444 154.873 175.358 155.222 175.179C155.331 175.133 155.441 175.087 155.55 175.041C155.79 174.908 156.064 174.793 156.304 174.66C156.489 174.551 156.708 174.459 156.872 174.39C156.981 174.344 157.091 174.298 157.2 174.251C158.227 173.756 159.242 173.202 160.256 172.649C160.386 172.562 160.496 172.516 160.66 172.447C160.79 172.361 160.954 172.292 161.085 172.205C161.75 171.83 162.435 171.415 163.121 170.999C163.601 170.734 163.497 172.016 163.943 171.733C164.444 171.427 165.122 170.956 165.601 170.691C165.917 170.494 166.781 169.553 167.063 169.34C167.324 169.167 168.541 169.05 168.802 168.877C169.639 168.335 169.519 167.698 170.322 167.138C171.408 166.365 172.2 165.611 173.273 164.78C173.348 164.716 174.493 164.698 173.976 164.123C174.258 163.909 174.446 164.998 174.728 164.784C174.989 165.537 175.78 163.87 175.415 163.168C175.675 162.995 175.839 163.511 176.12 163.297C176.402 163.083 177.048 163.032 177.073 162.274C177.506 161.934 176.503 162.879 176.915 162.579L178.189 161.404C178.416 161.213 178.68 160.692 178.907 160.502C178.983 160.438 179.095 160.261 179.205 160.214C179.432 160.024 179.652 160.109 179.879 159.919C180.03 159.792 180.297 159.508 180.415 159.363C180.545 159.277 180.35 159.324 180.48 159.237C180.501 159.197 181.01 158.831 180.659 158.65C180.886 158.459 180.848 158.578 181.041 158.37C181.193 158.243 182.158 157.991 181.814 157.814C182.041 157.623 182.093 157.459 182.32 157.269C182.719 156.911 182.831 156.466 183.23 156.108C183.781 155.623 184.504 154.902 185.021 154.399C185.559 153.856 186.076 153.353 186.613 152.81C186.903 152.498 187.248 152.163 187.538 151.85C187.634 151.746 187.731 151.642 187.827 151.538C189.201 150.041 190.527 148.469 191.774 146.803C192.147 146.329 192.508 145.797 192.869 145.265C193.007 145.08 193.112 144.877 193.25 144.692C193.389 144.507 193.548 144.281 193.708 144.056C193.77 143.934 193.846 143.871 193.909 143.749C193.972 143.628 194.068 143.524 194.131 143.402C194.27 143.217 194.408 143.032 194.513 142.829C194.672 142.604 194.853 142.338 195.012 142.112C195.31 141.702 195.574 141.274 195.859 140.805C196.123 140.377 196.009 139.822 196.134 139.579C196.197 139.457 195.955 139.414 195.997 139.333C196.039 139.252 196.035 139.597 196.722 139.301C196.743 139.26 196.134 139.579 196.134 139.579C194.929 139.856 195.603 137.978 195.312 136.801C195.021 135.624 196.489 134.002 195.808 133.496L195.321 133.209C195.186 133.139 195.632 132.08 195.476 132.051C195.278 132.102 193.937 131.069 194.178 131.34Z" fill="url(#paint1_linear_279_12511)"/>
<path d="M55.1589 83.12C53.712 82.9364 52.1233 83.1929 50.6955 83.6352C49.1582 84.1235 47.6724 84.8438 46.1994 85.6221C43.2663 87.2366 40.4779 89.234 37.7362 91.3069C36.6093 92.1614 35.5161 93.0335 34.3892 93.888C34.1074 94.1016 32.4622 95.0475 32.4427 95.4995C32.5224 103.549 33.0029 111.651 35.4071 118.849C38.9498 129.562 43.2829 139.657 49.0457 148.643C49.3256 149.096 49.6056 149.549 49.9064 149.961C49.9193 150.019 49.9869 150.054 49.9997 150.112C50.1735 150.356 50.3135 150.582 50.4872 150.826C51.1485 151.784 51.8097 152.742 52.5257 153.677C52.6866 153.863 52.8266 154.089 52.9875 154.275C53.0679 154.368 53.1274 154.501 53.2417 154.612C53.4026 154.798 53.5297 154.966 53.6358 155.175C53.7629 155.343 53.8772 155.454 54.0043 155.622C54.0976 155.773 54.2119 155.884 54.339 156.052C54.3518 156.11 54.4194 156.145 54.4532 156.162C54.5674 156.273 54.6608 156.424 54.7412 156.517C54.915 156.761 55.1097 156.964 55.2834 157.208C55.5248 157.487 55.7323 157.748 56.0075 158.044C56.0413 158.062 56.0413 158.062 56.0541 158.12C56.1008 158.195 56.1684 158.23 56.215 158.306C56.4226 158.567 56.6173 158.77 56.8458 158.991C57.1676 159.363 57.5232 159.752 57.8788 160.141C58.2006 160.513 58.5433 160.844 58.8523 161.158C59.195 161.489 59.5506 161.878 59.8933 162.21C59.9738 162.303 60.0752 162.355 60.1556 162.448C60.3165 162.634 60.5322 162.797 60.6931 162.983C60.9553 163.221 61.2177 163.459 61.4799 163.698C61.6746 163.901 61.9031 164.122 62.1188 164.285C62.6771 164.779 63.2355 165.273 63.7601 165.749L63.7939 165.767C60.6409 154.383 57.3347 133.269 60.4658 98.9545C60.6967 96.3533 60.8053 93.7401 60.5727 91.2071C60.4139 89.277 60.0476 87.0855 59.0807 85.5588C58.7541 85.0306 58.3519 84.5659 57.8739 84.1647C57.079 83.5483 56.1713 83.2329 55.1589 83.12Z" fill="url(#paint2_linear_279_12511)"/>
<path d="M148.473 178.108C153.206 170.443 158.594 163.167 164.236 156.229C167.448 152.5 170.964 148.928 174.485 145.513C181.157 139.98 193.929 139.789 194.063 135.633L195.793 132.3C195.51 132.103 195.793 132.266 195.476 132.051C188.655 125.499 178.297 113.316 173.761 116.751C144.456 138.948 132.545 156.473 122.408 183.211C101.503 184.464 80.7054 179.458 64.8807 166.654C61.3116 163.782 58.116 160.435 55.1345 156.84C70.741 178.104 89.2855 202.632 118.377 194.987C116.188 202.787 114.532 211.376 116.928 218.672C124.764 221.493 127.861 225.61 133.703 230.633C134.079 230.981 136.579 234.43 136.901 234.802C131.09 225.329 134.787 215.691 138.31 201.086C139.411 196.47 141.034 191.92 143.165 187.632C143.207 187.551 143.27 187.429 143.312 187.348C154.371 182.441 165.027 175.58 174.533 167.047C178.484 163.546 182.249 159.744 185.751 155.702C189.95 150.893 192.585 146.145 195.859 140.805C182.881 157.852 166.663 171.088 148.473 178.108ZM186.436 134.24C186.449 134.298 186.47 134.258 186.436 134.24C186.415 134.281 186.449 134.298 186.436 134.24ZM166.012 121.92C165.991 121.961 165.991 121.961 166.012 121.92V121.92Z" fill="url(#paint3_linear_279_12511)"/>
<path d="M-36.4536 127.411C-36.4374 127.214 -36.4213 127.017 -36.4051 126.821C-36.4018 126.566 -36.479 126.218 -36.5095 125.945C-36.6572 124.739 -36.8097 123.377 -36.8704 121.755C-36.9744 119.801 -36.9657 117.547 -36.9038 114.859C-36.7948 111.167 -36.5408 106.781 -36.0161 101.457C-34.5695 86.3947 -37.4327 74.6986 -41.1483 66.3091C-44.103 59.5964 -47.6025 55.0146 -49.8422 52.4704C-49.9164 52.9453 -56.8393 58.9647 -56.8393 58.9647C-60.3257 59.1637 -73.1563 51.0911 -73.7823 50.5621C-70.8352 56.2955 -67.9797 61.2116 -66.6104 67.9258C-63.7511 82.0325 -64.5942 97.2533 -62.2195 111.469C-61.3101 116.918 -60.282 123.713 -57.6374 128.623C-57.5907 128.698 -57.5778 128.756 -57.5312 128.831C-50.6695 133.869 -43.4742 132.046 -36.4536 127.411Z" fill="url(#paint4_linear_279_12511)"/>
<path d="M30.6237 71.547C15.0813 78.4989 1.65362 91.883 -11.344 104.104C-18.5519 110.592 -27.3256 121.352 -36.4536 127.411C-43.4742 132.046 -50.6567 133.927 -57.4974 128.849C-57.4845 128.907 -57.4507 128.924 -57.4041 129C-51.7534 136.131 -38.4285 149.131 -28.6175 146.556C-3.78025 135.376 14.4954 111.203 36.019 93.1766C42.0933 88.0532 48.0334 83.2338 57.8739 84.1647C51.8718 78.9561 39.2948 75.5692 30.6237 71.547Z" fill="url(#paint5_linear_279_12511)"/>
<path d="M64.2553 166.063C79.3031 178.948 101.47 184.497 122.375 183.245C122.375 183.245 119.959 190.399 118.385 194.998C89.3009 203.198 70.604 175.105 69.5184 174.63C68.4328 174.155 60.7309 163.045 64.2553 166.063Z" fill="url(#paint6_linear_279_12511)"/>
<path opacity="0.5" d="M30.6252 71.5459C15.0829 78.4978 1.64447 91.9402 -11.3531 104.161C-18.5611 110.649 -27.3347 121.409 -36.4627 127.469C-43.4834 132.103 -50.6658 133.984 -57.5066 128.906C-57.4937 128.964 -57.4599 128.982 -57.4132 129.057C-51.7626 136.189 -38.4377 149.188 -28.6266 146.613C-3.7894 135.433 14.2783 111.418 35.8018 93.3912C41.8762 88.2678 48.2136 83.3139 57.9101 84.1992C51.3125 78.5731 39.3007 75.6385 30.6252 71.5459Z" fill="url(#paint7_linear_279_12511)"/>
<g style="mix-blend-mode:darken">
<path d="M194.475 131.616C194.475 131.616 193.892 131.41 192.622 131.702C191.434 132.063 193.12 131.67 192.622 131.702C192.012 131.898 189.833 132.514 189.161 132.851C189.1 132.882 189.1 132.882 189.039 132.913C188.428 133.219 187.858 133.542 187.226 133.895C187.165 133.926 187.043 133.987 186.962 134.065L186.901 134.096C186.493 134.373 186.106 134.604 185.679 134.929C185.536 135.037 185.414 135.098 185.272 135.207C184.987 135.423 184.701 135.64 184.376 135.84C184.253 135.901 184.152 136.026 184.029 136.087C183.805 136.273 183.541 136.442 183.317 136.628C183.011 136.892 182.665 137.139 182.36 137.402C181.097 138.44 179.733 139.602 178.45 140.796C177.818 141.37 177.228 141.96 176.597 142.534C176.352 142.766 176.128 142.952 175.924 143.201C175.334 143.791 174.743 144.381 174.173 144.924C173.257 145.825 172.381 146.741 171.546 147.674C171.444 147.799 171.342 147.924 171.22 147.985C170.935 148.311 170.67 148.591 170.406 148.871C170.243 149.026 170.121 149.197 169.958 149.353C169.693 149.632 169.428 149.912 169.163 150.192C168.593 150.845 168.043 151.451 167.493 152.058C167.208 152.384 166.923 152.711 166.638 153.038C166.557 153.115 166.516 153.209 166.455 153.24C166.272 153.442 166.088 153.644 165.905 153.846C165.722 154.048 165.538 154.25 165.355 154.452C164.948 154.95 164.561 155.402 164.174 155.853C164.052 156.024 163.889 156.179 163.787 156.304C163.604 156.506 163.4 156.755 163.217 156.957C163.034 157.159 162.911 157.331 162.789 157.502C162.585 157.751 162.402 157.953 162.199 158.202C161.832 158.607 161.506 159.027 161.18 159.448C160.956 159.744 160.732 160.04 160.529 160.289C160.406 160.46 160.284 160.632 160.182 160.756C160.04 160.974 159.877 161.13 159.755 161.301C159.531 161.597 159.307 161.893 159.103 162.142C158.899 162.391 158.757 162.609 158.635 162.781L158.614 162.828C158.125 163.514 157.698 164.169 157.209 164.855C156.924 165.291 156.598 165.712 156.313 166.149C156.048 166.539 155.763 166.975 155.498 167.365C154.948 168.192 154.419 168.972 153.869 169.798C153.828 169.892 153.726 170.017 153.665 170.157C153.38 170.594 153.075 171.078 152.789 171.515C152.728 171.655 152.626 171.78 152.525 171.905C152.362 172.17 152.199 172.435 151.995 172.684C151.853 172.903 151.71 173.121 151.567 173.339C151.384 173.652 151.18 173.901 150.997 174.213C150.59 174.821 150.203 175.493 149.795 176.101C149.694 176.225 149.612 176.413 149.51 176.538C148.859 177.599 148.227 178.613 147.616 179.691C147.596 179.738 147.555 179.832 147.494 179.862C147.005 180.658 146.557 181.471 146.109 182.283C145.763 182.86 145.457 183.454 145.111 184.032C144.398 185.344 143.645 186.64 142.972 187.969C143.196 187.893 143.441 187.77 143.624 187.678C144.744 187.19 145.884 186.654 146.984 186.103C147.106 186.041 147.269 185.996 147.391 185.935C147.574 185.843 147.758 185.751 147.941 185.659C148.185 185.536 148.368 185.445 148.613 185.322C149.285 184.985 149.916 184.631 150.588 184.294C150.975 184.063 151.382 183.896 151.769 183.665C151.891 183.603 152.013 183.542 152.136 183.481C152.4 183.311 152.706 183.158 152.97 182.988C153.174 182.85 153.418 182.727 153.602 182.635C153.724 182.574 153.846 182.512 153.968 182.451C155.109 181.805 156.229 181.097 157.349 180.388C157.491 180.279 157.613 180.218 157.797 180.126C157.939 180.018 158.122 179.926 158.265 179.818C158.998 179.34 159.751 178.815 160.505 178.29C161.034 177.951 161.543 177.548 162.032 177.193C162.582 176.807 163.091 176.405 163.62 176.066C163.967 175.819 164.313 175.571 164.618 175.308C164.903 175.091 165.25 174.844 165.535 174.628C166.451 173.948 167.327 173.251 168.202 172.555C169.383 171.595 170.544 170.682 171.705 169.659C171.786 169.582 171.868 169.504 171.99 169.443C172.295 169.179 172.601 168.916 172.906 168.653C173.069 168.497 173.273 168.358 173.436 168.203C173.721 167.987 173.965 167.754 174.271 167.491C174.576 167.227 174.902 166.917 175.207 166.653C175.676 166.235 176.083 165.847 176.531 165.475L176.552 165.428C176.796 165.196 177.081 164.979 177.325 164.746C177.407 164.669 177.509 164.544 177.631 164.483C177.875 164.25 178.12 164.017 178.364 163.785C178.527 163.629 178.669 163.521 178.792 163.35C178.934 163.242 179.056 163.07 179.199 162.962C179.219 162.915 179.28 162.884 179.301 162.837C179.545 162.605 179.769 162.419 179.973 162.17C180.136 162.014 180.278 161.906 180.4 161.735C180.645 161.502 180.91 161.222 181.154 160.99C181.582 160.555 182.07 160.089 182.498 159.654C183.089 159.064 183.699 158.427 184.249 157.821C184.82 157.168 185.369 156.561 185.94 155.908C186.245 155.534 186.612 155.13 186.917 154.757C187.019 154.632 187.121 154.508 187.223 154.383C188.669 152.593 190.053 150.723 191.337 148.758C191.724 148.196 192.09 147.572 192.457 146.947C192.599 146.729 192.701 146.494 192.844 146.276C192.986 146.057 193.149 145.792 193.312 145.527C193.373 145.386 193.455 145.308 193.516 145.168C193.577 145.027 193.679 144.902 193.74 144.761C193.882 144.543 194.025 144.325 194.127 144.09C194.29 143.825 194.473 143.512 194.636 143.247C194.942 142.763 195.206 142.263 195.491 141.716C195.756 141.216 196.001 140.763 196.123 140.482C196.184 140.341 196.225 140.247 196.265 140.153C196.375 139.961 196.424 139.769 196.737 139.163C197.12 138.422 197.519 136.14 197.304 135.204C197.089 134.268 197.081 132.539 194.475 131.616C194.91 132.01 193.992 132.063 194.475 131.616Z" fill="#39B973"/>
</g>
<g style="mix-blend-mode:multiply" opacity="0.49">
<path d="M133.966 219.119C133.804 220.272 134.178 218.236 133.966 219.119C133.863 219.96 133.925 219.482 133.768 220.676C133.729 221.58 133.711 222.443 133.706 223.365C133.69 223.562 133.708 223.776 133.725 223.991C133.717 224.089 133.73 224.147 133.722 224.246C133.735 224.304 133.727 224.402 133.74 224.46C133.749 224.773 133.78 225.045 133.789 225.358C133.807 225.573 133.804 225.828 133.821 226.042C133.839 226.257 133.857 226.471 133.874 226.686C133.91 227.115 134 227.52 134.035 227.949C134.061 228.065 134.086 228.181 134.091 228.338C134.13 228.512 134.168 228.686 134.173 228.842C134.212 229.016 134.237 229.132 134.276 229.306C134.327 229.538 134.4 229.729 134.451 229.961C134.451 229.961 134.451 229.961 134.485 229.979C134.536 230.211 134.588 230.443 134.66 230.634C134.686 230.75 134.746 230.883 134.771 230.999C134.784 231.057 134.797 231.115 134.831 231.133C135.086 231.881 135.418 232.566 135.77 233.21C135.817 233.286 135.843 233.401 135.923 233.494C136.029 233.703 136.169 233.93 136.33 234.116C136.47 234.342 136.597 234.51 136.758 234.696C136.932 234.94 137.126 235.143 137.321 235.347C141.601 240.076 149.177 240.913 155.271 241.139C168.091 241.608 177.944 236.797 191.168 232.342C191.168 232.342 191.168 232.342 191.202 232.359C240.071 213.381 255.98 239.114 255.98 239.114C256.423 238.008 259.288 232.713 259.288 232.713C261.422 231.815 267.082 235.615 267.737 236.005C260.78 226.76 251.877 218.05 241.184 213.547C228.929 208.338 218.599 207.36 201.378 208.361C187.697 208.73 173.752 213.171 160.014 215.306C154.636 216.016 149.348 217.132 143.974 217.586C140.269 217.878 137.756 217.068 134.733 215.928C133.966 219.119 134.307 217.699 133.966 219.119Z" fill="#44E4B3" fill-opacity="0.56"/>
</g>
<defs>
<linearGradient id="paint0_linear_279_12511" x1="-127.923" y1="126.561" x2="4.44337" y2="335.186" gradientUnits="userSpaceOnUse">
<stop offset="0.0913428" stop-color="#2E7ED5"/>
<stop offset="0.276043" stop-color="#3EDAE4"/>
<stop offset="0.415206" stop-color="#45CDD5"/>
<stop offset="0.514701" stop-color="#3BD2CF"/>
<stop offset="0.581271" stop-color="#45E4B2"/>
<stop offset="0.671492" stop-color="#4EEA83"/>
<stop offset="0.751455" stop-color="#98E072"/>
<stop offset="0.815358" stop-color="#C1EF5E"/>
<stop offset="0.879535" stop-color="#EBFF49"/>
</linearGradient>
<linearGradient id="paint1_linear_279_12511" x1="-127.923" y1="126.561" x2="4.44337" y2="335.186" gradientUnits="userSpaceOnUse">
<stop offset="0.0913428" stop-color="#2E7ED5"/>
<stop offset="0.276043" stop-color="#3EDAE4"/>
<stop offset="0.415206" stop-color="#45CDD5"/>
<stop offset="0.514701" stop-color="#3BD2CF"/>
<stop offset="0.581271" stop-color="#45E4B2"/>
<stop offset="0.671492" stop-color="#4EEA83"/>
<stop offset="0.751455" stop-color="#98E072"/>
<stop offset="0.815358" stop-color="#C1EF5E"/>
<stop offset="0.879535" stop-color="#EBFF49"/>
</linearGradient>
<linearGradient id="paint2_linear_279_12511" x1="-127.923" y1="126.561" x2="4.44337" y2="335.186" gradientUnits="userSpaceOnUse">
<stop offset="0.0913428" stop-color="#2E7ED5"/>
<stop offset="0.276043" stop-color="#3EDAE4"/>
<stop offset="0.415206" stop-color="#45CDD5"/>
<stop offset="0.514701" stop-color="#3BD2CF"/>
<stop offset="0.581271" stop-color="#45E4B2"/>
<stop offset="0.671492" stop-color="#4EEA83"/>
<stop offset="0.751455" stop-color="#98E072"/>
<stop offset="0.815358" stop-color="#C1EF5E"/>
<stop offset="0.879535" stop-color="#EBFF49"/>
</linearGradient>
<linearGradient id="paint3_linear_279_12511" x1="-127.923" y1="126.561" x2="4.44337" y2="335.186" gradientUnits="userSpaceOnUse">
<stop offset="0.0913428" stop-color="#2E7ED5"/>
<stop offset="0.276043" stop-color="#3EDAE4"/>
<stop offset="0.415206" stop-color="#45CDD5"/>
<stop offset="0.514701" stop-color="#3BD2CF"/>
<stop offset="0.581271" stop-color="#45E4B2"/>
<stop offset="0.671492" stop-color="#4EEA83"/>
<stop offset="0.751455" stop-color="#98E072"/>
<stop offset="0.815358" stop-color="#C1EF5E"/>
<stop offset="0.879535" stop-color="#EBFF49"/>
</linearGradient>
<linearGradient id="paint4_linear_279_12511" x1="-127.923" y1="126.561" x2="4.44337" y2="335.186" gradientUnits="userSpaceOnUse">
<stop offset="0.0913428" stop-color="#2E7ED5"/>
<stop offset="0.276043" stop-color="#3EDAE4"/>
<stop offset="0.415206" stop-color="#45CDD5"/>
<stop offset="0.514701" stop-color="#3BD2CF"/>
<stop offset="0.581271" stop-color="#45E4B2"/>
<stop offset="0.671492" stop-color="#4EEA83"/>
<stop offset="0.751455" stop-color="#98E072"/>
<stop offset="0.815358" stop-color="#C1EF5E"/>
<stop offset="0.879535" stop-color="#EBFF49"/>
</linearGradient>
<linearGradient id="paint5_linear_279_12511" x1="-127.923" y1="126.561" x2="4.44337" y2="335.186" gradientUnits="userSpaceOnUse">
<stop offset="0.0913428" stop-color="#2E7ED5"/>
<stop offset="0.276043" stop-color="#3EDAE4"/>
<stop offset="0.415206" stop-color="#45CDD5"/>
<stop offset="0.514701" stop-color="#3BD2CF"/>
<stop offset="0.581271" stop-color="#45E4B2"/>
<stop offset="0.671492" stop-color="#4EEA83"/>
<stop offset="0.751455" stop-color="#98E072"/>
<stop offset="0.815358" stop-color="#C1EF5E"/>
<stop offset="0.879535" stop-color="#EBFF49"/>
</linearGradient>
<linearGradient id="paint6_linear_279_12511" x1="62.184" y1="172.771" x2="120.007" y2="192.82" gradientUnits="userSpaceOnUse">
<stop offset="0.0760415" stop-color="#3FCE7D" stop-opacity="0"/>
<stop offset="1" stop-color="#3FCE7D"/>
</linearGradient>
<linearGradient id="paint7_linear_279_12511" x1="-43.2554" y1="147.909" x2="55.0274" y2="92.3426" gradientUnits="userSpaceOnUse">
<stop stop-color="#42D1DA"/>
<stop offset="1" stop-color="#3AB5BD"/>
</linearGradient>
</defs>
</svg>
