<svg width="317" height="134" viewBox="0 0 317 134" fill="none" xmlns="http://www.w3.org/2000/svg">
<path d="M205.72 103.827C205.879 104.173 206.038 104.518 206.23 104.861C206.422 105.204 206.581 105.549 206.773 105.892C207.156 106.578 207.537 107.224 207.954 107.907C208.032 108.06 208.143 108.21 208.253 108.361C208.292 108.437 208.328 108.474 208.367 108.551C208.403 108.588 208.442 108.664 208.478 108.701C208.628 108.928 208.775 109.116 208.925 109.342C209.036 109.493 209.15 109.683 209.261 109.833C209.372 109.984 209.482 110.134 209.593 110.285C209.815 110.585 210.067 110.844 210.289 111.145C210.361 111.219 210.433 111.293 210.508 111.406C210.615 111.517 210.723 111.628 210.798 111.742C210.906 111.853 210.978 111.927 211.086 112.038C211.23 112.186 211.371 112.294 211.514 112.442C211.514 112.442 211.514 112.442 211.547 112.439C211.691 112.587 211.835 112.735 211.976 112.844C212.048 112.918 212.153 112.989 212.225 113.063C212.261 113.1 212.297 113.137 212.33 113.135C212.86 113.571 213.417 113.926 213.972 114.241C214.041 114.275 214.113 114.349 214.214 114.381C214.388 114.487 214.595 114.591 214.799 114.655C215.005 114.758 215.176 114.824 215.38 114.888C215.62 114.989 215.856 115.051 216.093 115.112C221.414 116.654 227.395 113.815 232.001 111.201C241.689 105.698 246.775 97.6452 254.515 88.3184C254.515 88.3184 254.515 88.3184 254.548 88.3159C282.001 51.9902 305.501 63.746 305.501 63.746C305.324 62.7269 305.025 57.5068 305.025 57.5068C306.192 55.869 312.109 56.094 312.771 56.0834C303.411 52.4266 292.856 50.0522 282.899 51.6041C271.466 53.3478 263.386 57.3386 251.117 65.9377C241.174 72.4532 232.896 82.0991 223.717 89.9466C220.067 92.9252 216.669 96.1626 212.904 98.9513C210.299 100.857 207.633 101.537 204.854 102.026C204.854 102.026 204.854 102.026 204.857 102.066C205.132 102.641 205.408 103.215 205.72 103.827Z" fill="url(#paint0_linear_279_14084)"/>
<path d="M210.647 12.3047C210.455 12.3987 210.903 12.422 210.748 12.553C210.466 12.773 210.152 12.9955 209.876 13.2945C209.538 13.638 206.78 16.4852 206.451 16.9472C206.421 16.9892 208.813 14.5669 208.783 14.6089C208.484 15.0289 208.218 15.4463 207.921 15.9058C207.891 15.9478 207.832 16.0317 207.805 16.1132L207.775 16.1552C207.601 16.4862 207.424 16.7776 207.254 17.1481C207.197 17.2715 207.137 17.3555 207.08 17.479C206.967 17.726 206.83 17.2937 206.684 17.5432C206.624 17.6272 206.622 18.4274 206.562 18.5114C206.479 18.7163 206.159 18.6083 206.076 18.8133C205.965 19.0997 206.024 19.7042 205.913 19.9906C205.437 21.1389 204.938 22.4082 204.504 23.6725C204.285 24.2849 204.1 24.8947 203.882 25.5071C203.801 25.7516 203.717 25.9565 203.669 26.1985C203.484 26.8084 203.298 27.4183 203.11 27.9887C202.817 28.9245 202.556 29.8578 202.329 30.7886C202.305 30.9096 202.281 31.0305 202.222 31.1145C202.147 31.438 202.069 31.7219 201.991 32.0058C201.937 32.1688 201.917 32.3293 201.863 32.4922C201.785 32.7762 201.707 33.0601 201.629 33.3441C201.48 33.9909 201.327 34.5983 201.175 35.2057C201.1 35.5291 201.025 35.8525 200.951 36.176C200.924 36.2574 200.93 36.3364 200.9 36.3784C200.849 36.5809 200.798 36.7833 200.747 36.9858C200.696 37.1883 200.646 37.3907 200.595 37.5932C200.499 38.0771 200.401 38.5215 200.302 38.9659C200.281 39.1263 200.227 39.2893 200.203 39.4103C200.152 39.6127 200.105 39.8547 200.054 40.0571C200.003 40.2596 199.982 40.4201 199.961 40.5805C199.913 40.8225 199.862 41.0249 199.815 41.2669C199.713 41.6718 199.644 42.0742 199.576 42.4766C199.531 42.758 199.486 43.0395 199.438 43.2814C199.417 43.4419 199.396 43.6023 199.372 43.7233C199.354 43.9233 199.301 44.0862 199.28 44.2467C199.235 44.5281 199.19 44.8096 199.142 45.0515C199.094 45.2935 199.077 45.4934 199.056 45.6539L199.059 45.6934C198.975 46.3352 198.921 46.9351 198.838 47.5769C198.802 47.9768 198.733 48.3792 198.698 48.7791C198.659 49.1395 198.623 49.5394 198.584 49.8999C198.51 50.6602 198.432 51.381 198.358 52.1413C198.364 52.2203 198.34 52.3413 198.349 52.4597C198.313 52.8596 198.28 53.299 198.244 53.6989C198.254 53.8174 198.23 53.9384 198.206 54.0593C198.191 54.2988 198.176 54.5382 198.128 54.7802C198.11 54.9801 198.092 55.1801 198.075 55.38C198.063 55.6589 198.015 55.9009 198.003 56.1798C197.946 56.7402 197.926 57.3375 197.869 57.8979C197.845 58.0189 197.857 58.1768 197.833 58.2978C197.774 59.2556 197.711 60.1738 197.685 61.1291C197.688 61.1686 197.694 61.2475 197.664 61.2895C197.619 62.0079 197.607 62.7237 197.596 63.4395C197.569 63.9578 197.575 64.4737 197.549 64.9921C197.537 66.1448 197.493 67.3 197.514 68.4501C197.637 68.3217 198.654 69.9712 198.051 68.9242C199.118 67.4839 198.588 68.6028 199.982 66.2776C200.042 66.1936 200.515 66.2809 200.515 66.2809C200.784 65.9029 200.278 65.7218 200.367 65.5958C200.487 65.4278 200.934 65.3868 201.054 65.2188C201.383 64.7569 201.841 65.5195 202.304 63.9836C203.149 62.9776 201.688 62.7707 201.864 62.4792C201.924 62.3952 201.984 62.3112 202.044 62.2273C202.16 62.0198 202.31 61.8098 202.427 61.6023C202.514 61.4369 202.633 61.2689 202.723 61.1429C202.783 61.0589 202.843 60.9749 202.903 60.8909C203.436 60.056 203.933 59.1841 204.429 58.3122C204.486 58.1888 204.546 58.1048 204.636 57.9788C204.693 57.8553 204.783 57.7293 204.84 57.6058C205.16 57.0254 205.477 56.4055 205.794 55.7856C206.028 55.3707 206.536 56.3652 206.736 55.9528C206.967 55.4984 207.253 54.8406 207.486 54.4256C207.63 54.1367 207.839 53.0469 207.95 52.7604C208.063 52.5135 208.91 51.8719 209.024 51.625C209.395 50.8421 209.016 50.4263 209.354 49.646C209.803 48.5791 210.045 47.6605 210.458 46.5567C210.485 46.4752 211.322 45.9393 210.678 45.75C210.789 45.4635 211.425 46.1824 211.535 45.8959C212.072 46.333 211.895 44.7403 211.305 44.388C211.419 44.1411 211.775 44.4478 211.886 44.1614C211.996 43.8749 212.45 43.542 212.123 42.9711C212.287 42.5217 211.978 43.6778 212.145 43.2678L212.551 41.8184C212.632 41.574 212.589 41.0685 212.669 40.8241C212.696 40.7426 212.699 40.5598 212.759 40.4758C212.839 40.2314 213.041 40.1941 213.122 39.9496C213.175 39.7866 213.244 39.4551 213.264 39.2946C213.321 39.1712 213.198 39.2954 213.255 39.1719C213.252 39.1324 213.461 38.6299 213.119 38.6558C213.2 38.4114 213.226 38.5163 213.274 38.2744C213.328 38.1114 213.926 37.4854 213.591 37.5109C213.672 37.2664 213.635 37.1219 213.716 36.8775C213.848 36.4305 213.728 36.0511 213.859 35.6042C214.045 34.9944 214.25 34.1314 214.403 33.524C214.552 32.8772 214.705 32.2698 214.854 31.6229C214.926 31.26 215.028 30.8551 215.099 30.4922C215.123 30.3712 215.147 30.2502 215.171 30.1293C215.503 28.3962 215.766 26.6286 215.927 24.829C215.986 24.3081 216.01 23.7503 216.034 23.1924C216.052 22.9925 216.037 22.795 216.054 22.5951C216.072 22.3951 216.087 22.1557 216.102 21.9162C216.093 21.7978 216.12 21.7163 216.111 21.5978C216.102 21.4794 216.126 21.3584 216.117 21.2399C216.135 21.04 216.152 20.84 216.137 20.6426C216.152 20.4031 216.164 20.1242 216.179 19.8848C216.212 19.4454 216.212 19.0085 216.208 18.5321C216.208 18.0952 215.87 17.7371 215.852 17.5001C215.843 17.3817 215.645 17.4605 215.639 17.3815C215.633 17.3025 215.787 17.5592 216.16 17.0265C216.157 16.987 215.852 17.5001 215.852 17.5001C215.088 18.2553 214.729 16.5597 213.977 15.8226C213.225 15.0855 213.569 13.2169 212.835 13.1536L212.345 13.1638C212.213 13.1738 212.059 12.1879 211.93 12.2374C211.808 12.3659 210.345 12.2147 210.647 12.3047Z" fill="url(#paint1_linear_279_14084)"/>
<path d="M85.9066 40.1112C84.7535 40.6358 83.6965 41.5503 82.8432 42.5288C81.93 43.5912 81.1607 44.8016 80.4273 46.0489C78.9965 48.5805 77.8474 51.3291 76.7673 54.1121C76.3244 55.2579 75.9145 56.4012 75.4717 57.547C75.361 57.8334 74.5768 59.2832 74.7687 59.6261C78.5009 65.5382 82.5535 71.3067 87.615 75.5289C95.1218 81.8289 102.931 87.3116 111.29 91.3226C111.704 91.5295 112.117 91.7363 112.528 91.9037C112.564 91.9407 112.63 91.9356 112.666 91.9726C112.905 92.0735 113.112 92.177 113.352 92.2779C114.278 92.6841 115.203 93.0902 116.159 93.4544C116.363 93.5184 116.57 93.6218 116.773 93.6857C116.875 93.7177 116.98 93.7891 117.115 93.8186C117.319 93.8825 117.489 93.949 117.663 94.0549C117.834 94.1213 117.969 94.1508 118.14 94.2173C118.277 94.2862 118.412 94.3157 118.583 94.3821C118.619 94.4191 118.685 94.4141 118.718 94.4116C118.853 94.441 118.99 94.51 119.092 94.5419C119.332 94.6429 119.569 94.7043 119.808 94.8052C120.114 94.9011 120.387 94.9995 120.725 95.0929C120.758 95.0904 120.758 95.0904 120.794 95.1274C120.863 95.1619 120.929 95.1568 120.998 95.1913C121.27 95.2897 121.507 95.3512 121.777 95.4101C122.184 95.538 122.625 95.6633 123.065 95.7887C123.473 95.9166 123.877 96.0049 124.248 96.0958C124.653 96.1842 125.093 96.3096 125.498 96.398C125.6 96.4299 125.698 96.4224 125.8 96.4544C126.004 96.5183 126.238 96.5402 126.442 96.6042C126.744 96.6606 127.047 96.717 127.349 96.7734C127.586 96.8349 127.856 96.8938 128.089 96.9157C128.727 97.026 129.365 97.1364 129.971 97.2492L130.004 97.2467C122.478 90.2728 110.4 76.1784 97.0544 49.3911C96.038 47.3634 94.9257 45.3827 93.5979 43.617C92.5997 42.2631 91.3289 40.8108 89.9177 40.1238C89.4353 39.8824 88.926 39.7226 88.3897 39.6443C87.521 39.5515 86.7062 39.7326 85.9066 40.1112Z" fill="url(#paint2_linear_279_14084)"/>
<path d="M198.213 67.7234C198.213 59.899 198.874 52.0639 199.877 44.3617C200.549 40.1402 201.518 35.8961 202.562 31.7655C204.967 24.6318 214.318 18.6624 212.521 15.5296L212.278 12.2775C211.979 12.2605 212.263 12.2518 211.93 12.2374C203.9 10.5084 190.686 6.23164 188.901 10.8408C177.375 40.6173 176.569 59.0038 181.28 83.3897C166.403 93.8553 148.749 99.6469 131.212 97.4066C127.263 96.9127 123.375 95.8978 119.531 94.6016C140.767 103.193 165.665 112.857 183.675 93.9313C185.617 100.695 188.313 107.798 193.413 112.096C200.491 110.604 204.659 112.234 211.268 113.28C211.705 113.366 215.127 114.773 215.534 114.901C206.917 110.552 205.25 101.743 201.189 89.3419C199.896 85.4288 199.019 81.3251 198.637 77.1838C198.631 77.1048 198.622 76.9863 198.616 76.9074C204.549 68.2343 209.293 58.3013 212.424 47.6569C213.746 43.2668 214.793 38.7388 215.537 34.1543C216.445 28.6836 216.226 23.9721 216.208 18.5321C214.397 37.052 208.452 54.2346 198.213 67.7234ZM206.249 17.9808C206.285 18.0178 206.282 17.9783 206.249 17.9808C206.252 18.0203 206.285 18.0178 206.249 17.9808ZM185.533 18.1968C185.536 18.2363 185.536 18.2363 185.533 18.1968V18.1968Z" fill="url(#paint3_linear_279_14084)"/>
<path d="M38.4173 114.65C38.3393 114.497 38.2614 114.344 38.1834 114.191C38.0695 114.001 37.8537 113.779 37.7068 113.592C37.0474 112.768 36.3131 111.831 35.5277 110.66C34.5595 109.264 33.5373 107.594 32.3561 105.579C30.7522 102.801 28.9384 99.4441 26.8965 95.2701C21.0917 83.4786 13.6383 76.1418 7.06394 71.6376C1.81702 68.0253 -2.85992 66.2363 -5.67618 65.3782C-5.51425 65.7631 -7.88336 73.3706 -7.88336 73.3706C-10.3689 75.1087 -23.5347 74.9983 -24.2387 74.893C-19.4444 77.7851 -15.0908 80.115 -11.0148 84.4519C-2.46424 93.5719 3.85871 105.205 12.1009 114.626C15.2598 118.239 19.1202 122.791 23.3152 125.212C23.3841 125.246 23.42 125.283 23.489 125.318C30.8584 125.909 35.3438 121.278 38.4173 114.65Z" fill="url(#paint4_linear_279_14084)"/>
<path d="M62.4937 42.7554C54.1804 54.9855 50.3652 71.0041 46.3368 85.9666C43.9709 94.0505 42.3976 106.006 38.4173 114.65C35.3438 121.278 30.8944 125.946 23.5219 125.315C23.5579 125.352 23.5908 125.35 23.6597 125.384C31.09 128.076 46.8695 131.602 52.9447 125.222C66.1975 105.625 68.6721 79.4216 76.3515 56.2775C78.5024 49.7193 80.6927 43.447 88.3897 39.6443C81.5772 38.5341 70.7372 41.7707 62.4937 42.7554Z" fill="url(#paint5_linear_279_14084)"/>
<path d="M38.4342 114.687C38.3563 114.534 38.2783 114.381 38.2004 114.228C38.0865 114.038 37.8707 113.816 37.7238 113.629C37.0644 112.805 36.3301 111.868 35.5447 110.696C34.5765 109.3 33.5542 107.631 32.373 105.615C30.7692 102.838 28.9553 99.4809 26.9134 95.307C21.1086 83.5155 13.6553 76.1787 7.0809 71.6744C1.83397 68.0621 -2.84297 66.2732 -5.65923 65.415C-5.4973 65.7999 -7.86641 73.4074 -7.86641 73.4074C-10.352 75.1455 -23.5177 75.0351 -24.2217 74.9298C-19.4275 77.822 -15.0738 80.1518 -10.9978 84.4887C-2.44728 93.6088 3.87566 105.242 12.1178 114.663C15.2768 118.276 19.1372 122.827 23.3321 125.249C23.401 125.283 23.437 125.32 23.5059 125.355C30.8754 125.946 35.3607 121.315 38.4342 114.687Z" fill="url(#paint6_linear_279_14084)"/>
<path d="M130.479 97.2547C147.48 99.9098 166.394 93.895 181.271 83.4293C181.271 83.4293 182.75 89.8188 183.686 93.9355C165.934 113.268 139.297 101.04 138.278 101.184C137.259 101.328 126.498 96.6328 130.479 97.2547Z" fill="url(#paint7_linear_279_14084)"/>
<path opacity="0.5" d="M62.4944 42.7538C54.181 54.984 50.3845 71.0505 46.3561 86.0129C43.9902 94.0968 42.4168 106.052 38.4366 114.696C35.363 121.325 30.9136 125.992 23.5412 125.362C23.5771 125.399 23.6101 125.396 23.679 125.431C31.1093 128.122 46.8888 131.648 52.964 125.268C66.2168 105.672 68.6095 79.6792 76.2889 56.5351C78.4398 49.9769 80.8624 43.4239 88.4322 39.6531C80.9891 38.5063 70.7732 41.8192 62.4944 42.7538Z" fill="url(#paint8_linear_279_14084)"/>
<g style="mix-blend-mode:darken">
<path d="M210.992 12.3731C210.992 12.3731 210.467 12.4865 209.662 13.2817C208.949 14.091 210.016 13.0312 209.662 13.2817C209.3 13.7056 207.971 15.1551 207.629 15.7109C207.597 15.7614 207.597 15.7614 207.566 15.812C207.255 16.3173 206.981 16.816 206.675 17.3653C206.644 17.4159 206.582 17.5169 206.557 17.6114L206.526 17.6619C206.352 18.0531 206.171 18.4003 206.003 18.8354C205.947 18.9804 205.885 19.0815 205.829 19.2265C205.717 19.5166 205.605 19.8067 205.456 20.1033C205.394 20.2044 205.375 20.3429 205.313 20.4439C205.232 20.6835 205.114 20.9296 205.033 21.1691C204.928 21.5032 204.785 21.8438 204.679 22.1779C204.22 23.5207 203.741 25.002 203.338 26.4701C203.134 27.1823 202.967 27.8878 202.762 28.5999C202.688 28.8834 202.607 29.123 202.57 29.4C202.403 30.1055 202.236 30.8111 202.062 31.4727C201.796 32.5563 201.567 33.6333 201.376 34.7038C201.357 34.8423 201.339 34.9808 201.277 35.0818C201.215 35.4533 201.147 35.7808 201.079 36.1083C201.029 36.2974 201.017 36.4798 200.968 36.6689C200.9 36.9964 200.832 37.3239 200.764 37.6514C200.64 38.3944 200.511 39.0934 200.381 39.7924C200.319 40.1639 200.258 40.5354 200.196 40.9069C200.171 41.0014 200.184 41.0893 200.153 41.1399C200.11 41.3729 200.067 41.6059 200.023 41.8389C199.98 42.0719 199.937 42.3049 199.894 42.5379C199.82 43.0918 199.74 43.6018 199.66 44.1118C199.648 44.2943 199.598 44.4833 199.58 44.6218C199.537 44.8548 199.5 45.1318 199.457 45.3648C199.413 45.5978 199.401 45.7802 199.389 45.9627C199.352 46.2397 199.309 46.4727 199.272 46.7497C199.186 47.2157 199.137 47.6751 199.088 48.1346C199.058 48.4555 199.027 48.7765 198.99 49.0535C198.978 49.2359 198.966 49.4184 198.948 49.5569C198.942 49.7834 198.892 49.9724 198.88 50.1548C198.85 50.4758 198.819 50.7968 198.782 51.0737C198.746 51.3507 198.74 51.5772 198.728 51.7596L198.734 51.8036C198.686 52.5335 198.669 53.2129 198.621 53.9427C198.609 54.3957 198.56 54.8551 198.549 55.308C198.531 55.7169 198.52 56.1698 198.502 56.5787C198.473 57.4406 198.437 58.2584 198.408 59.1202C198.421 59.2082 198.403 59.3467 198.422 59.4786C198.41 59.9315 198.405 60.4284 198.394 60.8813C198.413 61.0132 198.395 61.1517 198.376 61.2902C198.377 61.5607 198.378 61.8311 198.341 62.1081C198.335 62.3345 198.329 62.561 198.324 62.7874C198.331 63.1018 198.294 63.3788 198.301 63.6932C198.277 64.3286 198.298 65.0014 198.274 65.6368C198.256 65.7753 198.281 65.9512 198.263 66.0897C198.266 67.1714 198.262 68.2091 198.302 69.2843C198.309 69.3283 198.321 69.4163 198.29 69.4668C198.292 70.2781 198.332 71.0828 198.371 71.8876C198.379 72.4724 198.424 73.0507 198.432 73.6355C198.504 74.9306 198.538 76.2322 198.648 77.5208C198.779 77.3626 198.904 77.1605 198.997 77.0089C199.602 76.1368 200.2 75.2207 200.761 74.3111C200.823 74.2101 200.923 74.1025 200.985 74.0014C201.079 73.8498 201.172 73.6982 201.266 73.5466C201.39 73.3445 201.484 73.1929 201.608 72.9908C201.951 72.435 202.256 71.8857 202.599 71.3298C202.78 70.9827 203.004 70.6729 203.185 70.3258C203.247 70.2247 203.309 70.1237 203.372 70.0226C203.49 69.7765 203.646 69.5238 203.764 69.2777C203.851 69.0822 203.976 68.88 204.069 68.7285C204.131 68.6274 204.194 68.5263 204.256 68.4253C204.804 67.4278 205.308 66.3928 205.812 65.3579C205.868 65.2128 205.931 65.1118 206.024 64.9602C206.08 64.8152 206.173 64.6636 206.229 64.5185C206.553 63.8307 206.87 63.099 207.188 62.3672C207.424 61.875 207.617 61.3454 207.816 60.8597C208.046 60.3236 208.238 59.7939 208.475 59.3017C208.618 58.9611 208.761 58.6205 208.867 58.2864C208.978 57.9964 209.121 57.6557 209.233 57.3657C209.6 56.4449 209.929 55.5307 210.259 54.6164C210.694 53.3682 211.135 52.1638 211.526 50.8781C211.551 50.7836 211.575 50.6891 211.638 50.588C211.743 50.254 211.849 49.9199 211.954 49.5859C212.004 49.3968 212.091 49.2013 212.141 49.0123C212.252 48.7222 212.327 48.4386 212.432 48.1046C212.538 47.7705 212.637 47.3925 212.743 47.0584C212.898 46.5353 213.022 46.0628 213.183 45.5837L213.177 45.5397C213.251 45.2562 213.363 44.9661 213.437 44.6825C213.462 44.588 213.481 44.4495 213.543 44.3485C213.617 44.0649 213.692 43.7814 213.766 43.4979C213.816 43.3089 213.871 43.1638 213.884 42.9814C213.939 42.8363 213.952 42.6538 214.007 42.5088C214.001 42.4648 214.032 42.4143 214.026 42.3703C214.1 42.0868 214.181 41.8472 214.218 41.5702C214.267 41.3812 214.323 41.2362 214.335 41.0537C214.41 40.7702 214.478 40.4427 214.552 40.1591C214.67 39.6426 214.818 39.0755 214.936 38.559C215.103 37.8535 215.264 37.1039 215.394 36.4049C215.517 35.6619 215.647 34.9629 215.77 34.22C215.825 33.8045 215.912 33.3385 215.967 32.923C215.985 32.7845 216.004 32.646 216.022 32.5075C216.274 30.5247 216.444 28.511 216.495 26.4729C216.525 25.8815 216.511 25.2527 216.497 24.6239C216.503 24.3974 216.471 24.1775 216.476 23.9511C216.482 23.7246 216.481 23.4542 216.481 23.1838C216.462 23.0518 216.486 22.9573 216.467 22.8254C216.448 22.6934 216.467 22.5549 216.448 22.423C216.453 22.1965 216.459 21.9701 216.427 21.7502C216.426 21.4798 216.419 21.1653 216.419 20.8949C216.424 20.398 216.391 19.9077 216.352 19.3734C216.32 18.8831 216.294 18.4367 216.256 18.1728C216.236 18.0409 216.224 17.9529 216.211 17.865C216.205 17.6729 216.153 17.5082 216.108 16.9181C216.052 16.1957 215.306 14.3267 214.72 13.7333C214.134 13.1398 213.339 11.8663 210.992 12.3731C211.493 12.4656 210.839 12.9241 210.992 12.3731Z" fill="#39B973"/>
</g>
<g style="mix-blend-mode:multiply" opacity="0.49">
<path d="M206.208 104.651C206.614 105.577 205.961 103.901 206.208 104.651C206.515 105.319 206.343 104.938 206.772 105.892C207.156 106.577 207.537 107.224 207.953 107.907C208.031 108.06 208.142 108.21 208.253 108.361C208.292 108.437 208.328 108.474 208.367 108.551C208.403 108.588 208.442 108.664 208.478 108.701C208.628 108.928 208.775 109.115 208.924 109.342C209.035 109.493 209.149 109.683 209.26 109.833C209.371 109.984 209.482 110.134 209.593 110.284C209.815 110.585 210.066 110.844 210.288 111.145C210.36 111.219 210.432 111.293 210.507 111.406C210.615 111.517 210.723 111.628 210.798 111.742C210.906 111.853 210.978 111.927 211.086 112.038C211.229 112.186 211.37 112.294 211.514 112.442C211.514 112.442 211.514 112.442 211.547 112.439C211.691 112.587 211.835 112.735 211.976 112.844C212.047 112.918 212.152 112.989 212.224 113.063C212.26 113.1 212.296 113.137 212.329 113.135C212.86 113.571 213.417 113.926 213.971 114.241C214.04 114.275 214.112 114.349 214.214 114.381C214.388 114.487 214.595 114.591 214.798 114.655C215.005 114.758 215.176 114.824 215.379 114.888C215.619 114.989 215.856 115.051 216.093 115.112C221.413 116.653 227.394 113.815 232 111.201C241.689 105.698 246.775 97.6451 254.514 88.3183C254.514 88.3183 254.514 88.3183 254.547 88.3158C282.001 51.9901 305.5 63.746 305.5 63.746C305.323 62.7268 305.024 57.5067 305.024 57.5067C306.192 55.8689 312.108 56.094 312.77 56.0833C303.41 52.4265 292.856 50.0521 282.899 51.604C271.466 53.3477 263.385 57.3385 251.116 65.9376C241.174 72.4531 232.895 82.099 223.717 89.9466C220.067 92.9251 216.668 96.1625 212.904 98.9512C210.299 100.857 208.072 101.405 205.318 101.942C206.208 104.651 205.811 103.446 206.208 104.651Z" fill="#44E4B3" fill-opacity="0.56"/>
</g>
<defs>
<linearGradient id="paint0_linear_279_14084" x1="-29.5669" y1="155.763" x2="163.458" y2="249.532" gradientUnits="userSpaceOnUse">
<stop offset="0.0913428" stop-color="#2E7ED5"/>
<stop offset="0.276043" stop-color="#3EDAE4"/>
<stop offset="0.415206" stop-color="#45CDD5"/>
<stop offset="0.514701" stop-color="#3BD2CF"/>
<stop offset="0.581271" stop-color="#45E4B2"/>
<stop offset="0.671492" stop-color="#4EEA83"/>
<stop offset="0.751455" stop-color="#98E072"/>
<stop offset="0.815358" stop-color="#C1EF5E"/>
<stop offset="0.879535" stop-color="#EBFF49"/>
</linearGradient>
<linearGradient id="paint1_linear_279_14084" x1="-29.5669" y1="155.763" x2="163.458" y2="249.532" gradientUnits="userSpaceOnUse">
<stop offset="0.0913428" stop-color="#2E7ED5"/>
<stop offset="0.276043" stop-color="#3EDAE4"/>
<stop offset="0.415206" stop-color="#45CDD5"/>
<stop offset="0.514701" stop-color="#3BD2CF"/>
<stop offset="0.581271" stop-color="#45E4B2"/>
<stop offset="0.671492" stop-color="#4EEA83"/>
<stop offset="0.751455" stop-color="#98E072"/>
<stop offset="0.815358" stop-color="#C1EF5E"/>
<stop offset="0.879535" stop-color="#EBFF49"/>
</linearGradient>
<linearGradient id="paint2_linear_279_14084" x1="-29.5669" y1="155.763" x2="163.458" y2="249.532" gradientUnits="userSpaceOnUse">
<stop offset="0.0913428" stop-color="#2E7ED5"/>
<stop offset="0.276043" stop-color="#3EDAE4"/>
<stop offset="0.415206" stop-color="#45CDD5"/>
<stop offset="0.514701" stop-color="#3BD2CF"/>
<stop offset="0.581271" stop-color="#45E4B2"/>
<stop offset="0.671492" stop-color="#4EEA83"/>
<stop offset="0.751455" stop-color="#98E072"/>
<stop offset="0.815358" stop-color="#C1EF5E"/>
<stop offset="0.879535" stop-color="#EBFF49"/>
</linearGradient>
<linearGradient id="paint3_linear_279_14084" x1="-29.5669" y1="155.763" x2="163.458" y2="249.532" gradientUnits="userSpaceOnUse">
<stop offset="0.0913428" stop-color="#2E7ED5"/>
<stop offset="0.276043" stop-color="#3EDAE4"/>
<stop offset="0.415206" stop-color="#45CDD5"/>
<stop offset="0.514701" stop-color="#3BD2CF"/>
<stop offset="0.581271" stop-color="#45E4B2"/>
<stop offset="0.671492" stop-color="#4EEA83"/>
<stop offset="0.751455" stop-color="#98E072"/>
<stop offset="0.815358" stop-color="#C1EF5E"/>
<stop offset="0.879535" stop-color="#EBFF49"/>
</linearGradient>
<linearGradient id="paint4_linear_279_14084" x1="-29.5669" y1="155.763" x2="163.458" y2="249.532" gradientUnits="userSpaceOnUse">
<stop offset="0.0913428" stop-color="#2E7ED5"/>
<stop offset="0.276043" stop-color="#3EDAE4"/>
<stop offset="0.415206" stop-color="#45CDD5"/>
<stop offset="0.514701" stop-color="#3BD2CF"/>
<stop offset="0.581271" stop-color="#45E4B2"/>
<stop offset="0.671492" stop-color="#4EEA83"/>
<stop offset="0.751455" stop-color="#98E072"/>
<stop offset="0.815358" stop-color="#C1EF5E"/>
<stop offset="0.879535" stop-color="#EBFF49"/>
</linearGradient>
<linearGradient id="paint5_linear_279_14084" x1="-29.5669" y1="155.763" x2="163.458" y2="249.532" gradientUnits="userSpaceOnUse">
<stop offset="0.0913428" stop-color="#2E7ED5"/>
<stop offset="0.276043" stop-color="#3EDAE4"/>
<stop offset="0.415206" stop-color="#45CDD5"/>
<stop offset="0.514701" stop-color="#3BD2CF"/>
<stop offset="0.581271" stop-color="#45E4B2"/>
<stop offset="0.671492" stop-color="#4EEA83"/>
<stop offset="0.751455" stop-color="#98E072"/>
<stop offset="0.815358" stop-color="#C1EF5E"/>
<stop offset="0.879535" stop-color="#EBFF49"/>
</linearGradient>
<linearGradient id="paint6_linear_279_14084" x1="33.4175" y1="119.697" x2="-17.9139" y2="78.6544" gradientUnits="userSpaceOnUse">
<stop stop-color="#3AB9C1"/>
<stop offset="1" stop-color="#3ECAD2" stop-opacity="0"/>
</linearGradient>
<linearGradient id="paint7_linear_279_14084" x1="132.01" y1="103.157" x2="183.89" y2="91.5862" gradientUnits="userSpaceOnUse">
<stop offset="0.0760415" stop-color="#3FCE7D" stop-opacity="0"/>
<stop offset="1" stop-color="#3FCE7D"/>
</linearGradient>
<linearGradient id="paint8_linear_279_14084" x1="42.7446" y1="132.901" x2="90.0181" y2="46.9866" gradientUnits="userSpaceOnUse">
<stop stop-color="#42D1DA"/>
<stop offset="1" stop-color="#3AB5BD"/>
</linearGradient>
</defs>
</svg>
