<svg width="365" height="151" viewBox="0 0 365 151" fill="none" xmlns="http://www.w3.org/2000/svg">
<path d="M103.956 145.005C103.861 145.432 103.766 145.86 103.634 146.292C103.502 146.725 103.407 147.152 103.275 147.585C103.01 148.45 102.739 149.27 102.437 150.14C102.387 150.331 102.298 150.528 102.21 150.724C102.185 150.819 102.154 150.87 102.128 150.965C102.097 151.016 102.072 151.111 102.04 151.162C101.927 151.454 101.807 151.7 101.694 151.992C101.606 152.188 101.524 152.43 101.436 152.626C101.348 152.823 101.26 153.019 101.172 153.215C100.995 153.608 100.775 153.961 100.599 154.353C100.536 154.454 100.473 154.555 100.417 154.701C100.322 154.852 100.228 155.003 100.171 155.149C100.077 155.3 100.014 155.401 99.9196 155.552C99.7937 155.753 99.6617 155.91 99.5359 156.111C99.5359 156.111 99.5359 156.111 99.4982 156.116C99.3724 156.318 99.2466 156.52 99.1146 156.676C99.0517 156.777 98.951 156.883 98.8881 156.983C98.8567 157.034 98.8253 157.084 98.7876 157.089C98.2971 157.71 97.7564 158.245 97.2096 158.735C97.1404 158.79 97.0775 158.891 96.9707 158.952C96.8009 159.113 96.5935 159.28 96.3799 159.402C96.1725 159.569 95.9965 159.685 95.7828 159.807C95.5377 159.979 95.2864 160.105 95.035 160.232C89.4236 163.264 82.0016 161.528 76.1813 159.71C63.9378 155.879 56.2517 148.058 45.2691 139.45C45.2691 139.45 45.2691 139.45 45.2314 139.455C5.48326 105.274 -18.0935 124.231 -18.0935 124.231C-18.1426 123.041 -19.0789 117.095 -19.0789 117.095C-20.792 115.536 -27.3945 117.232 -28.142 117.381C-18.5015 110.985 -7.20392 105.74 4.37811 105.058C17.6686 104.233 27.7338 106.753 43.6361 113.438C56.4123 118.346 68.0794 127.181 80.3201 133.774C85.1538 136.235 89.7673 139.05 94.6828 141.27C98.0791 142.779 101.244 142.894 104.492 142.767C104.492 142.767 104.492 142.767 104.498 142.812C104.328 143.526 104.157 144.24 103.956 145.005Z" fill="url(#paint0_linear_276_25)"/>
<path d="M76.0977 43.2216C76.3363 43.2807 75.8379 43.416 76.0451 43.5255C76.4155 43.7044 76.8236 43.8781 77.2064 44.1474C77.6709 44.4514 81.4681 46.9829 81.9513 47.4224C81.9952 47.4623 78.7126 45.32 78.7565 45.36C79.1958 45.7596 79.5973 46.1643 80.0428 46.6091C80.0868 46.649 80.1746 46.7289 80.2248 46.8141L80.2687 46.854C80.5447 47.1841 80.8145 47.469 81.0968 47.8442C81.1909 47.9693 81.2787 48.0492 81.3728 48.1743C81.561 48.4245 81.609 47.9048 81.8349 48.1498C81.9227 48.2297 82.1193 49.1298 82.2072 49.2097C82.3514 49.4199 82.6843 49.2205 82.8286 49.4307C83.023 49.7261 83.1041 50.4206 83.2985 50.7159C84.1138 51.892 84.9856 53.1984 85.7819 54.5153C86.177 55.1511 86.5344 55.7921 86.9294 56.428C87.0799 56.6833 87.2242 56.8935 87.337 57.1541C87.6943 57.7952 88.0517 58.4362 88.4028 59.0321C88.9609 60.0137 89.4812 61.0004 89.9638 61.9924C90.0202 62.1227 90.0767 62.253 90.1645 62.3329C90.3274 62.6786 90.4842 62.9791 90.6409 63.2797C90.7412 63.4499 90.8038 63.6254 90.9041 63.7956C91.0609 64.0962 91.2176 64.3967 91.3744 64.6973C91.7003 65.3887 92.0199 66.035 92.3397 66.6812C92.5026 67.0269 92.6656 67.3726 92.8285 67.7184C92.8787 67.8035 92.8911 67.8938 92.9351 67.9338C93.0416 68.1492 93.1482 68.3646 93.2548 68.58C93.3613 68.7954 93.4679 69.0109 93.5744 69.2263C93.8 69.7475 94.0194 70.2235 94.2388 70.6995C94.3014 70.8749 94.4018 71.0452 94.4581 71.1755C94.5647 71.3909 94.6775 71.6515 94.7841 71.8669C94.8906 72.0823 94.9533 72.2578 95.0159 72.4332C95.1287 72.6938 95.2353 72.9093 95.3481 73.1699C95.5612 73.6007 95.7366 74.0367 95.912 74.4728C96.0311 74.7786 96.1501 75.0843 96.2629 75.3449C96.3255 75.5204 96.3882 75.6958 96.4446 75.8261C96.5135 76.0467 96.6138 76.217 96.6764 76.3925C96.7954 76.6982 96.9145 77.004 97.0273 77.2646C97.1401 77.5252 97.209 77.7458 97.2716 77.9212L97.2778 77.9664C97.5284 78.6683 97.735 79.3302 97.9856 80.032C98.1233 80.4733 98.2987 80.9093 98.4365 81.3506C98.568 81.7467 98.7058 82.188 98.8372 82.5841C99.1065 83.4214 99.3695 84.2136 99.6388 85.0509C99.6513 85.1413 99.7076 85.2716 99.7263 85.4071C99.8641 85.8484 100.008 86.3348 100.146 86.7761C100.165 86.9116 100.221 87.0419 100.277 87.1722C100.352 87.438 100.428 87.7038 100.54 87.9643C100.609 88.185 100.678 88.4056 100.747 88.6262C100.828 88.9372 100.941 89.1978 101.022 89.5088C101.223 90.1255 101.392 90.7926 101.592 91.4093C101.649 91.5396 101.674 91.7203 101.73 91.8506C102.03 92.9138 102.325 93.9318 102.587 95.0002C102.594 95.0454 102.606 95.1358 102.65 95.1757C102.875 95.9731 103.063 96.7757 103.251 97.5783C103.407 98.1551 103.526 98.7371 103.682 99.3139C103.976 100.608 104.308 101.897 104.564 103.197C104.395 103.082 103.652 105.186 104.076 103.861C102.524 102.5 103.393 103.63 101.258 101.354C101.17 101.274 100.659 101.487 100.659 101.487C100.264 101.128 100.789 100.8 100.658 100.68C100.482 100.521 99.9689 100.583 99.7932 100.424C99.3101 99.9841 98.9807 100.954 98.0849 99.3386C96.8898 98.4124 98.4834 97.8234 98.2136 97.5385C98.1257 97.4586 98.0379 97.3787 97.95 97.2987C97.7681 97.0937 97.5484 96.894 97.3665 96.689C97.2285 96.5239 97.0528 96.3641 96.921 96.2442C96.8332 96.1643 96.7453 96.0844 96.6575 96.0045C95.8544 95.195 95.0827 94.335 94.311 93.4751C94.2169 93.35 94.1291 93.2701 93.9973 93.1502C93.9032 93.0251 93.7714 92.9053 93.6773 92.7802C93.1754 92.2052 92.6673 91.585 92.1592 90.9648C91.7953 90.5548 91.4662 91.7978 91.14 91.3826C90.7699 90.9274 90.2877 90.257 89.9238 89.847C89.6917 89.5569 89.1907 88.3816 88.9963 88.0863C88.8081 87.8361 87.6992 87.3205 87.511 87.0704C86.9026 86.2799 87.2276 85.7197 86.6569 84.9241C85.8917 83.8331 85.3953 82.8584 84.6616 81.7171C84.6114 81.6319 83.5386 81.233 84.2172 80.863C84.0228 80.5676 83.4823 81.5316 83.2879 81.2363C82.7907 81.8589 82.6011 80.0237 83.1794 79.4834C82.9913 79.2332 82.6653 79.6652 82.4709 79.3699C82.2764 79.0746 81.6849 78.8105 81.914 78.0883C81.6193 77.6227 82.2494 78.8482 81.9609 78.4277L81.1512 76.8957C81.0008 76.6403 80.9258 76.0611 80.7754 75.8057C80.7252 75.7206 80.6781 75.5155 80.5902 75.4356C80.4398 75.1802 80.2039 75.1873 80.0534 74.932C79.953 74.7617 79.7956 74.4052 79.733 74.2298C79.6389 74.1047 79.8077 74.2144 79.7136 74.0894C79.7074 74.0442 79.3499 73.5296 79.7406 73.4756C79.5901 73.2202 79.5864 73.3446 79.4736 73.084C79.3733 72.9138 78.5475 72.3552 78.9306 72.3022C78.7801 72.0469 78.7858 71.8754 78.6353 71.62C78.3782 71.1492 78.4208 70.6931 78.1637 70.2223C77.8063 69.5812 77.3649 68.6603 77.0452 68.014C76.7193 67.3226 76.3996 66.6763 76.0737 65.9849C75.9044 65.594 75.6913 65.1632 75.5221 64.7723C75.4657 64.642 75.4093 64.5117 75.3529 64.3814C74.5571 62.5121 73.8304 60.5872 73.2106 58.6016C73.0164 58.03 72.8537 57.4081 72.6911 56.7861C72.6222 56.5655 72.591 56.3396 72.5221 56.119C72.4532 55.8984 72.3781 55.6326 72.303 55.3668C72.2843 55.2313 72.2341 55.1462 72.2154 55.0107C72.1967 54.8751 72.1403 54.7449 72.1216 54.6093C72.0527 54.3887 71.9839 54.1681 71.9527 53.9422C71.8776 53.6764 71.7962 53.3655 71.7211 53.0997C71.5771 52.6132 71.4708 52.1216 71.3583 51.5848C71.252 51.0931 71.5448 50.6077 71.5074 50.3367C71.4887 50.2012 71.731 50.2416 71.7185 50.1512C71.7061 50.0609 71.5948 50.3874 71.0459 49.8788C71.0396 49.8336 71.5074 50.3367 71.5074 50.3367C72.5518 51 72.5417 49.0047 73.2084 47.9919C73.8752 46.9791 73.032 44.9605 73.8425 44.7103L74.3972 44.6021C74.5479 44.5813 74.4804 43.4344 74.6374 43.4587C74.8069 43.5733 76.4158 43.0466 76.0977 43.2216Z" fill="url(#paint1_linear_276_25)"/>
<path d="M223.24 44.0979C224.665 44.4071 226.078 45.1784 227.276 46.0714C228.563 47.0442 229.724 48.2186 230.853 49.4433C233.08 51.9432 235.043 54.7558 236.937 57.624C237.715 58.8053 238.455 59.9919 239.233 61.1732C239.427 61.4685 240.663 62.9087 240.531 63.3413C237.772 70.9037 234.619 78.3827 229.953 84.3677C223.042 93.287 215.591 101.36 207.163 107.912C206.748 108.245 206.333 108.579 205.912 108.867C205.881 108.918 205.805 108.928 205.774 108.978C205.529 109.15 205.321 109.317 205.076 109.489C204.133 110.172 203.191 110.855 202.204 111.497C201.99 111.619 201.783 111.786 201.569 111.907C201.462 111.968 201.362 112.074 201.217 112.14C201.004 112.262 200.828 112.378 200.658 112.54C200.482 112.656 200.337 112.722 200.161 112.839C200.023 112.95 199.879 113.016 199.703 113.132C199.671 113.183 199.596 113.193 199.558 113.198C199.414 113.264 199.275 113.376 199.169 113.436C198.923 113.608 198.672 113.735 198.427 113.907C198.107 114.09 197.824 114.267 197.466 114.454C197.428 114.46 197.428 114.46 197.396 114.51C197.327 114.566 197.252 114.576 197.183 114.632C196.9 114.809 196.649 114.936 196.36 115.068C195.932 115.311 195.467 115.559 195.002 115.808C194.575 116.051 194.141 116.249 193.746 116.442C193.312 116.64 192.847 116.888 192.413 117.086C192.307 117.147 192.194 117.163 192.087 117.224C191.873 117.345 191.615 117.427 191.402 117.549C191.075 117.686 190.748 117.823 190.422 117.96C190.17 118.087 189.881 118.219 189.624 118.301C188.933 118.581 188.241 118.86 187.588 119.135L187.55 119.14C194.318 109.458 204.473 90.6537 212.958 57.2579C213.608 54.7285 214.376 52.2285 215.44 49.9179C216.233 48.1511 217.309 46.2071 218.729 45.09C219.213 44.7008 219.748 44.3968 220.332 44.1779C221.287 43.8617 222.248 43.8669 223.24 44.0979Z" fill="url(#paint2_linear_276_25)"/>
<path d="M103.6 102.549C101.693 93.7449 99.0385 85.0898 96.032 76.6676C94.2465 72.0813 92.1218 67.5418 89.9404 63.1483C85.4946 55.7077 73.5167 51.2706 74.7755 47.3073L74.2554 43.5887C74.5884 43.4966 74.2668 43.556 74.6374 43.4587C83.2524 39.5553 97.0785 31.5212 100.21 36.2725C120.44 66.9679 125.829 87.4607 126.474 116.049C145.766 124.198 167.042 126.411 186.23 119.615C190.552 118.096 194.681 116.006 198.69 113.61C176.888 128.456 151.228 145.4 126.349 128.495C125.813 136.578 124.511 145.228 119.82 151.309C111.492 151.356 107.199 154.205 100.018 156.994C99.5467 157.197 96.0399 159.615 95.6125 159.859C104.249 152.864 103.976 142.545 105.523 127.601C106.024 122.882 106.01 118.051 105.43 113.298C105.418 113.207 105.399 113.072 105.386 112.982C96.5953 104.669 88.836 94.6485 82.717 83.4345C80.159 78.8169 77.8775 73.9769 75.9228 68.9997C73.567 63.0652 72.665 57.7103 71.3583 51.5848C77.9116 71.9824 88.7903 89.8675 103.6 102.549ZM82.4304 48.5363C82.3989 48.5867 82.3927 48.5415 82.4304 48.5363C82.4366 48.5814 82.3989 48.5867 82.4304 48.5363ZM105.793 43.7287C105.799 43.7739 105.799 43.7739 105.793 43.7287V43.7287Z" fill="url(#paint3_linear_276_25)"/>
<path d="M294.85 116.393C294.9 116.202 294.95 116.011 295.001 115.82C295.083 115.579 295.271 115.276 295.391 115.03C295.932 113.942 296.53 112.709 297.128 111.199C297.877 109.392 298.62 107.264 299.458 104.708C300.586 101.192 301.808 96.9722 303.088 91.7777C306.745 77.0943 313.343 67.0214 319.643 60.3502C324.666 55.0062 329.493 51.853 332.452 50.2008C332.364 50.6733 336.885 58.656 336.885 58.656C340.105 60.0058 354.893 56.6717 355.659 56.3815C350.97 60.8047 346.639 64.4878 343.11 70.3616C335.712 82.7085 331.433 97.3399 324.456 109.951C321.782 114.786 318.548 120.849 314.418 124.596C314.349 124.652 314.318 124.702 314.248 124.758C306.1 127.22 299.924 123.103 294.85 116.393Z" fill="url(#paint4_linear_276_25)"/>
<path d="M250.23 41.365C262.566 53.1 270.764 70.1946 278.945 86.0487C283.578 94.5682 288.263 107.638 294.85 116.393C299.924 123.103 306.069 127.27 314.211 124.763C314.179 124.813 314.142 124.819 314.073 124.874C306.368 129.714 289.472 137.529 281.08 131.831C261.39 113.012 252.217 84.1296 237.933 59.9592C233.914 53.104 229.92 46.5803 220.332 44.1779C227.727 41.2678 240.714 42.2668 250.23 41.365Z" fill="url(#paint5_linear_276_25)"/>
<path d="M294.839 116.439C294.89 116.248 294.94 116.057 294.991 115.866C295.073 115.624 295.261 115.322 295.381 115.075C295.922 113.988 296.52 112.754 297.118 111.244C297.867 109.438 298.61 107.31 299.448 104.754C300.576 101.238 301.798 97.0179 303.078 91.8234C306.735 77.1399 313.333 67.0671 319.633 60.3959C324.656 55.0519 329.483 51.8987 332.442 50.2465C332.354 50.719 336.875 58.7017 336.875 58.7017C340.095 60.0515 354.883 56.7173 355.649 56.4272C350.96 60.8504 346.629 64.5335 343.1 70.4073C335.702 82.7542 331.423 97.3856 324.446 109.997C321.772 114.831 318.538 120.895 314.408 124.642C314.339 124.698 314.307 124.748 314.238 124.804C306.09 127.265 299.914 123.148 294.839 116.439Z" fill="url(#paint6_linear_276_25)"/>
<path d="M187.017 119.265C168.534 126.398 145.785 124.241 126.493 116.092C126.493 116.092 126.386 123.642 126.337 128.502C151.025 145.928 178.017 125.674 179.199 125.588C180.381 125.502 191.345 117.595 187.017 119.265Z" fill="url(#paint7_linear_276_25)"/>
<path opacity="0.5" d="M250.228 41.3635C262.565 53.0985 270.754 70.2514 278.935 86.1056C283.568 94.6251 288.253 107.694 294.839 116.45C299.914 123.159 306.058 127.327 314.2 124.82C314.169 124.87 314.131 124.876 314.062 124.931C306.357 129.771 289.461 137.586 281.07 131.888C261.38 113.068 252.35 84.4043 238.066 60.2339C234.047 53.3787 229.723 46.5957 220.286 44.1983C228.382 41.0932 240.685 42.3302 250.228 41.3635Z" fill="url(#paint8_linear_276_25)"/>
<g style="mix-blend-mode:darken">
<path d="M75.7257 43.3828C75.7257 43.3828 76.3444 43.3824 77.4442 44.0809C78.4437 44.8178 76.9852 43.8852 77.4442 44.0809C77.9546 44.4697 79.8034 45.7767 80.3245 46.3186C80.3719 46.3678 80.3719 46.3678 80.4193 46.4171C80.8931 46.9097 81.323 47.4041 81.8003 47.9478C81.8477 47.9971 81.9425 48.0956 81.9934 48.1959L82.0408 48.2451C82.3322 48.6428 82.62 48.9894 82.9149 49.4381C83.0132 49.5877 83.108 49.6862 83.2063 49.8358C83.4029 50.1349 83.5996 50.434 83.84 50.7314C83.9348 50.8299 83.9893 50.9813 84.084 51.0798C84.2333 51.3297 84.4263 51.5777 84.5756 51.8276C84.7758 52.1778 85.0198 52.5262 85.22 52.8763C86.0645 54.2752 86.9636 55.8255 87.775 57.3793C88.179 58.1307 88.5391 58.8838 88.943 59.6352C89.0958 59.9361 89.2451 60.186 89.3541 60.4887C89.7142 61.2418 90.0743 61.995 90.4309 62.6971C90.9947 63.8515 91.5148 65.0077 91.991 66.1656C92.0455 66.3169 92.1 66.4683 92.1948 66.5668C92.3547 66.9698 92.5111 67.3217 92.6674 67.6737C92.7693 67.8743 92.8274 68.0767 92.9292 68.2773C93.0856 68.6292 93.242 68.9812 93.3984 69.3331C93.7182 70.1391 94.0345 70.894 94.3508 71.649C94.5107 72.0519 94.6707 72.4549 94.8306 72.8579C94.8816 72.9582 94.8887 73.0603 94.936 73.1096C95.0415 73.3612 95.1469 73.6129 95.2524 73.8645C95.3578 74.1161 95.4632 74.3678 95.5686 74.6194C95.7866 75.2248 96.0011 75.7791 96.2155 76.3335C96.2736 76.5359 96.3754 76.7365 96.4299 76.8878C96.5354 77.1394 96.6444 77.4421 96.7498 77.6938C96.8552 77.9454 96.9133 78.1478 96.9713 78.3502C97.0803 78.6529 97.1858 78.9045 97.2948 79.2072C97.5056 79.7105 97.6727 80.2156 97.8397 80.7206C97.9523 81.0744 98.0648 81.4281 98.1738 81.7308C98.2319 81.9332 98.29 82.1355 98.3445 82.2869C98.4061 82.5403 98.5079 82.7409 98.566 82.9433C98.6785 83.297 98.7911 83.6507 98.9001 83.9534C99.0091 84.2561 99.0707 84.5095 99.1288 84.7119L99.1323 84.763C99.3645 85.5725 99.5494 86.3328 99.7816 87.1423C99.9049 87.6491 100.072 88.1542 100.195 88.661C100.315 89.1169 100.438 89.6237 100.558 90.0795C100.801 91.0421 101.04 91.9538 101.283 92.9164C101.29 93.0185 101.345 93.1698 101.355 93.3229C101.478 93.8298 101.605 94.3877 101.728 94.8945C101.739 95.0476 101.794 95.199 101.848 95.3503C101.913 95.6548 101.979 95.9593 102.087 96.2619C102.149 96.5154 102.211 96.7688 102.272 97.0222C102.341 97.3777 102.45 97.6804 102.519 98.0359C102.7 98.7451 102.841 99.5072 103.022 100.216C103.077 100.368 103.091 100.572 103.146 100.723C103.406 101.941 103.664 103.108 103.88 104.328C103.884 104.379 103.891 104.481 103.938 104.53C104.134 105.443 104.286 106.358 104.437 107.274C104.571 107.934 104.661 108.595 104.795 109.255C105.03 110.73 105.309 112.203 105.499 113.68C105.314 113.534 105.124 113.337 104.982 113.189C104.089 112.355 103.192 111.47 102.339 110.583C102.245 110.485 102.106 110.388 102.011 110.29C101.869 110.142 101.727 109.994 101.585 109.846C101.395 109.649 101.253 109.501 101.064 109.304C100.543 108.762 100.065 108.219 99.5442 107.677C99.2564 107.33 98.9283 107.036 98.6405 106.69C98.5458 106.591 98.451 106.493 98.3562 106.394C98.1632 106.146 97.9263 105.9 97.7332 105.652C97.5875 105.453 97.398 105.256 97.2559 105.108C97.1611 105.01 97.0664 104.911 96.9716 104.812C96.1117 103.824 95.2921 102.782 94.4724 101.74C94.3741 101.591 94.2794 101.492 94.1372 101.345C94.0389 101.195 93.8968 101.047 93.7985 100.898C93.2666 100.203 92.7313 99.4565 92.1959 98.7105C91.8097 98.2143 91.4639 97.6653 91.1215 97.1673C90.7319 96.6201 90.386 96.0711 89.9998 95.5749C89.7558 95.2265 89.5119 94.8781 89.3117 94.528C89.115 94.2288 88.871 93.8805 88.6744 93.5813C88.0371 92.6347 87.4437 91.6862 86.8503 90.7378C86.0566 89.4392 85.2666 88.1916 84.5132 86.8402C84.4622 86.7399 84.4113 86.6396 84.3165 86.5411C84.1164 86.1909 83.9162 85.8407 83.716 85.4906C83.6141 85.29 83.4684 85.0911 83.3666 84.8905C83.1699 84.5914 83.0171 84.2905 82.8169 83.9403C82.6167 83.5901 82.413 83.1889 82.2128 82.8388C81.9107 82.288 81.6561 81.7865 81.3576 81.2867L81.354 81.2357C81.2012 80.9348 81.0046 80.6356 80.8518 80.3347C80.8008 80.2344 80.7463 80.0831 80.6516 79.9846C80.4987 79.6837 80.3459 79.3828 80.1931 79.0818C80.0912 78.8812 79.9929 78.7317 79.9349 78.5293C79.8366 78.3797 79.7785 78.1773 79.6802 78.0278C79.6766 77.9767 79.6293 77.9275 79.6257 77.8764C79.4729 77.5755 79.3236 77.3257 79.2146 77.023C79.1128 76.8224 79.0145 76.6728 78.9564 76.4704C78.8036 76.1695 78.6472 75.8176 78.4944 75.5167C78.2362 74.9641 77.9305 74.3623 77.6723 73.8097C77.3122 73.0566 76.9485 72.2524 76.6322 71.4974C76.3123 70.6915 75.996 69.9365 75.6762 69.1305C75.5127 68.6765 75.3018 68.1732 75.1383 67.7192C75.0838 67.5679 75.0293 67.4165 74.9748 67.2652C74.2083 65.0953 73.5259 62.8709 72.9713 60.5901C72.7936 59.9319 72.6561 59.2209 72.5186 58.5099C72.457 58.2565 72.4392 58.0013 72.3776 57.7479C72.316 57.4944 72.2508 57.19 72.1856 56.8855C72.1749 56.7324 72.124 56.6321 72.1133 56.479C72.1026 56.3258 72.0481 56.1745 72.0375 56.0214C71.9758 55.768 71.9142 55.5145 71.8964 55.2593C71.8312 54.9549 71.7625 54.5994 71.6973 54.2949C71.5705 53.737 71.4876 53.1774 71.401 52.5667C71.318 52.007 71.2386 51.4984 71.2173 51.1921C71.2066 51.039 71.1994 50.9369 71.1923 50.8349C71.1527 50.6172 71.1706 50.4193 71.0777 49.7443C70.9639 48.9178 71.3482 46.6328 71.863 45.8221C72.3779 45.0115 72.9615 43.3847 75.7257 43.3828C75.1847 43.609 76.0323 43.9655 75.7257 43.3828Z" fill="#39B973"/>
</g>
<g style="mix-blend-mode:multiply" opacity="0.49">
<path d="M103.608 146.051C103.376 147.192 103.702 145.147 103.608 146.051C103.425 146.878 103.525 146.407 103.275 147.585C103.01 148.45 102.739 149.27 102.437 150.14C102.387 150.331 102.298 150.528 102.21 150.724C102.185 150.819 102.154 150.87 102.128 150.965C102.097 151.016 102.072 151.111 102.04 151.162C101.927 151.454 101.807 151.7 101.694 151.992C101.606 152.188 101.524 152.43 101.436 152.626C101.348 152.823 101.26 153.019 101.172 153.215C100.995 153.608 100.775 153.96 100.599 154.353C100.536 154.454 100.473 154.555 100.417 154.701C100.322 154.852 100.228 155.003 100.171 155.149C100.077 155.3 100.014 155.401 99.9196 155.552C99.7938 155.753 99.6617 155.91 99.5359 156.111C99.5359 156.111 99.5359 156.111 99.4982 156.116C99.3724 156.318 99.2466 156.519 99.1146 156.676C99.0517 156.777 98.9511 156.883 98.8882 156.983C98.8567 157.034 98.8253 157.084 98.7876 157.089C98.2971 157.71 97.7565 158.245 97.2096 158.735C97.1404 158.79 97.0775 158.891 96.9707 158.952C96.801 159.113 96.5936 159.28 96.3799 159.402C96.1725 159.568 95.9965 159.685 95.7829 159.806C95.5378 159.978 95.2864 160.105 95.035 160.232C89.4236 163.264 82.0016 161.528 76.1813 159.71C63.9379 155.879 56.2518 148.058 45.2691 139.45C45.2691 139.45 45.2691 139.45 45.2314 139.455C5.48331 105.274 -18.0935 124.231 -18.0935 124.231C-18.1426 123.041 -19.0789 117.095 -19.0789 117.095C-20.792 115.536 -27.3945 117.232 -28.142 117.381C-18.5015 110.985 -7.20393 105.74 4.3781 105.058C17.6686 104.233 27.7339 106.753 43.6361 113.438C56.4124 118.346 68.0794 127.181 80.3201 133.774C85.1538 136.235 89.7673 139.05 94.6828 141.27C98.0791 142.779 100.718 142.853 103.948 142.786C103.608 146.051 103.76 144.599 103.608 146.051Z" fill="#44E4B3" fill-opacity="0.56"/>
</g>
<defs>
<linearGradient id="paint0_linear_276_25" x1="381.372" y1="146.08" x2="187.035" y2="298.653" gradientUnits="userSpaceOnUse">
<stop offset="0.0913428" stop-color="#2E7ED5"/>
<stop offset="0.276043" stop-color="#3EDAE4"/>
<stop offset="0.415206" stop-color="#45CDD5"/>
<stop offset="0.514701" stop-color="#3BD2CF"/>
<stop offset="0.581271" stop-color="#45E4B2"/>
<stop offset="0.671492" stop-color="#4EEA83"/>
<stop offset="0.751455" stop-color="#98E072"/>
<stop offset="0.815358" stop-color="#C1EF5E"/>
<stop offset="0.879535" stop-color="#EBFF49"/>
</linearGradient>
<linearGradient id="paint1_linear_276_25" x1="381.372" y1="146.08" x2="187.035" y2="298.653" gradientUnits="userSpaceOnUse">
<stop offset="0.0913428" stop-color="#2E7ED5"/>
<stop offset="0.276043" stop-color="#3EDAE4"/>
<stop offset="0.415206" stop-color="#45CDD5"/>
<stop offset="0.514701" stop-color="#3BD2CF"/>
<stop offset="0.581271" stop-color="#45E4B2"/>
<stop offset="0.671492" stop-color="#4EEA83"/>
<stop offset="0.751455" stop-color="#98E072"/>
<stop offset="0.815358" stop-color="#C1EF5E"/>
<stop offset="0.879535" stop-color="#EBFF49"/>
</linearGradient>
<linearGradient id="paint2_linear_276_25" x1="381.372" y1="146.08" x2="187.035" y2="298.653" gradientUnits="userSpaceOnUse">
<stop offset="0.0913428" stop-color="#2E7ED5"/>
<stop offset="0.276043" stop-color="#3EDAE4"/>
<stop offset="0.415206" stop-color="#45CDD5"/>
<stop offset="0.514701" stop-color="#3BD2CF"/>
<stop offset="0.581271" stop-color="#45E4B2"/>
<stop offset="0.671492" stop-color="#4EEA83"/>
<stop offset="0.751455" stop-color="#98E072"/>
<stop offset="0.815358" stop-color="#C1EF5E"/>
<stop offset="0.879535" stop-color="#EBFF49"/>
</linearGradient>
<linearGradient id="paint3_linear_276_25" x1="381.372" y1="146.08" x2="187.035" y2="298.653" gradientUnits="userSpaceOnUse">
<stop offset="0.0913428" stop-color="#2E7ED5"/>
<stop offset="0.276043" stop-color="#3EDAE4"/>
<stop offset="0.415206" stop-color="#45CDD5"/>
<stop offset="0.514701" stop-color="#3BD2CF"/>
<stop offset="0.581271" stop-color="#45E4B2"/>
<stop offset="0.671492" stop-color="#4EEA83"/>
<stop offset="0.751455" stop-color="#98E072"/>
<stop offset="0.815358" stop-color="#C1EF5E"/>
<stop offset="0.879535" stop-color="#EBFF49"/>
</linearGradient>
<linearGradient id="paint4_linear_276_25" x1="381.372" y1="146.08" x2="187.035" y2="298.653" gradientUnits="userSpaceOnUse">
<stop offset="0.0913428" stop-color="#2E7ED5"/>
<stop offset="0.276043" stop-color="#3EDAE4"/>
<stop offset="0.415206" stop-color="#45CDD5"/>
<stop offset="0.514701" stop-color="#3BD2CF"/>
<stop offset="0.581271" stop-color="#45E4B2"/>
<stop offset="0.671492" stop-color="#4EEA83"/>
<stop offset="0.751455" stop-color="#98E072"/>
<stop offset="0.815358" stop-color="#C1EF5E"/>
<stop offset="0.879535" stop-color="#EBFF49"/>
</linearGradient>
<linearGradient id="paint5_linear_276_25" x1="381.372" y1="146.08" x2="187.035" y2="298.653" gradientUnits="userSpaceOnUse">
<stop offset="0.0913428" stop-color="#2E7ED5"/>
<stop offset="0.276043" stop-color="#3EDAE4"/>
<stop offset="0.415206" stop-color="#45CDD5"/>
<stop offset="0.514701" stop-color="#3BD2CF"/>
<stop offset="0.581271" stop-color="#45E4B2"/>
<stop offset="0.671492" stop-color="#4EEA83"/>
<stop offset="0.751455" stop-color="#98E072"/>
<stop offset="0.815358" stop-color="#C1EF5E"/>
<stop offset="0.879535" stop-color="#EBFF49"/>
</linearGradient>
<linearGradient id="paint6_linear_276_25" x1="301.706" y1="120.853" x2="349.46" y2="62.156" gradientUnits="userSpaceOnUse">
<stop stop-color="#3AB9C1"/>
<stop offset="1" stop-color="#3ECAD2" stop-opacity="0"/>
</linearGradient>
<linearGradient id="paint7_linear_276_25" x1="186.733" y1="126.28" x2="125.535" y2="125.909" gradientUnits="userSpaceOnUse">
<stop offset="0.0760415" stop-color="#3FCE7D" stop-opacity="0"/>
<stop offset="1" stop-color="#3FCE7D"/>
</linearGradient>
<linearGradient id="paint8_linear_276_25" x1="294.43" y1="137.985" x2="220.29" y2="52.8369" gradientUnits="userSpaceOnUse">
<stop stop-color="#42D1DA"/>
<stop offset="1" stop-color="#3AB5BD"/>
</linearGradient>
</defs>
</svg>
