<svg width="405" height="200" viewBox="0 0 405 200" fill="none" xmlns="http://www.w3.org/2000/svg">
<path d="M283.486 125.413C283.799 125.108 284.113 124.802 284.461 124.513C284.809 124.224 285.122 123.919 285.47 123.63C286.166 123.052 286.843 122.515 287.573 121.953C287.72 121.821 287.901 121.705 288.083 121.589C288.156 121.523 288.21 121.498 288.284 121.432C288.338 121.407 288.411 121.341 288.465 121.316C288.72 121.135 288.955 120.994 289.21 120.812C289.391 120.696 289.592 120.539 289.774 120.424C289.955 120.308 290.137 120.192 290.318 120.076C290.681 119.845 291.058 119.671 291.421 119.439C291.529 119.389 291.637 119.34 291.764 119.249C291.926 119.174 292.088 119.099 292.215 119.009C292.377 118.934 292.485 118.884 292.647 118.81C292.863 118.71 293.059 118.652 293.274 118.552C293.274 118.552 293.274 118.552 293.309 118.569C293.525 118.469 293.74 118.37 293.936 118.311C294.044 118.262 294.187 118.228 294.294 118.179C294.348 118.154 294.402 118.129 294.437 118.145C295.187 117.896 295.933 117.745 296.659 117.635C296.747 117.627 296.855 117.577 296.978 117.585C297.208 117.543 297.473 117.517 297.718 117.533C297.983 117.507 298.194 117.506 298.44 117.522C298.739 117.513 299.019 117.545 299.298 117.576C305.653 118.121 310.906 123.643 314.774 128.357C322.909 138.277 325.044 149.033 329.504 162.255C329.504 162.255 329.504 162.255 329.538 162.271C344.016 212.657 374.128 209.743 374.128 209.743C373.517 210.764 371.037 216.25 371.037 216.25C371.614 218.493 378.064 220.697 378.771 220.982C367.202 221.041 354.879 219.228 344.822 213.443C333.257 206.842 326.225 199.212 316.597 184.899C308.608 173.786 303.701 159.998 297.085 147.77C294.394 143.06 292.081 138.176 289.189 133.623C287.178 130.498 284.594 128.665 281.81 126.99C281.81 126.99 281.81 126.99 281.83 126.949C282.364 126.445 282.898 125.942 283.486 125.413Z" fill="url(#paint0_linear_279_13664)"/>
<path d="M250.934 225.794C250.767 225.613 251.258 225.774 251.144 225.568C250.933 225.216 250.687 224.847 250.515 224.411C250.293 223.902 248.507 219.703 248.345 219.07C248.33 219.013 249.899 222.605 249.884 222.547C249.736 221.972 249.622 221.413 249.494 220.797C249.479 220.74 249.449 220.625 249.454 220.526L249.439 220.468C249.39 220.041 249.321 219.655 249.29 219.186C249.28 219.03 249.251 218.915 249.241 218.759C249.221 218.446 248.895 218.854 248.841 218.526C248.811 218.411 249.141 217.55 249.111 217.435C249.106 217.18 248.718 217.165 248.713 216.91C248.712 216.556 249.026 215.931 249.025 215.577C248.989 214.147 248.977 212.576 249.033 211.038C249.052 210.29 249.105 209.558 249.123 208.81C249.138 208.514 249.132 208.259 249.181 207.979C249.234 207.247 249.287 206.515 249.32 205.824C249.392 204.697 249.499 203.587 249.639 202.493C249.664 202.353 249.688 202.213 249.658 202.098C249.712 201.719 249.746 201.382 249.78 201.045C249.789 200.848 249.833 200.667 249.843 200.469C249.876 200.132 249.91 199.795 249.944 199.457C250.051 198.7 250.138 197.985 250.226 197.269C250.279 196.891 250.332 196.512 250.386 196.134C250.391 196.035 250.43 195.953 250.415 195.895C250.444 195.657 250.473 195.418 250.502 195.179C250.531 194.941 250.56 194.702 250.59 194.464C250.687 193.904 250.765 193.386 250.842 192.868C250.886 192.687 250.896 192.489 250.92 192.349C250.949 192.111 250.998 191.831 251.027 191.592C251.056 191.354 251.1 191.173 251.144 190.992C251.193 190.712 251.222 190.473 251.27 190.194C251.329 189.716 251.421 189.256 251.514 188.795C251.582 188.474 251.65 188.153 251.699 187.873C251.743 187.692 251.787 187.511 251.811 187.371C251.874 187.149 251.884 186.952 251.928 186.771C251.996 186.45 252.064 186.129 252.113 185.849C252.162 185.569 252.225 185.347 252.269 185.166L252.289 185.125C252.464 184.4 252.655 183.734 252.83 183.009C252.957 182.565 253.05 182.104 253.177 181.66C253.284 181.256 253.411 180.812 253.518 180.409C253.753 179.561 253.967 178.754 254.202 177.906C254.241 177.824 254.265 177.684 254.324 177.561C254.451 177.116 254.597 176.63 254.724 176.186C254.783 176.062 254.807 175.922 254.831 175.783C254.915 175.519 254.998 175.256 255.046 174.976C255.11 174.754 255.173 174.531 255.237 174.309C255.339 174.005 255.388 173.725 255.49 173.42C255.661 172.795 255.886 172.144 256.057 171.519C256.081 171.379 256.16 171.214 256.184 171.074C256.516 170.02 256.829 169.008 257.195 167.97C257.215 167.929 257.254 167.847 257.239 167.789C257.488 166.999 257.772 166.225 258.055 165.451C258.241 164.883 258.461 164.331 258.646 163.763C259.111 162.52 259.541 161.26 260.039 160.033C260.118 160.222 261.893 158.87 260.812 159.746C261.363 161.735 261.256 160.313 261.793 163.388C261.822 163.503 262.366 163.605 262.366 163.605C262.499 164.123 261.88 164.108 261.925 164.28C261.984 164.51 262.447 164.739 262.507 164.969C262.669 165.602 263.477 164.972 263.34 166.814C263.831 168.244 262.175 167.862 262.244 168.248C262.274 168.363 262.304 168.478 262.333 168.593C262.373 168.864 262.447 169.152 262.486 169.423C262.511 169.637 262.57 169.867 262.615 170.039C262.644 170.154 262.674 170.269 262.704 170.384C262.931 171.502 263.104 172.644 263.278 173.786C263.288 173.943 263.317 174.058 263.362 174.23C263.372 174.386 263.416 174.559 263.426 174.715C263.53 175.471 263.615 176.268 263.7 177.066C263.779 177.608 264.736 176.749 264.781 177.276C264.841 177.859 264.876 178.684 264.955 179.227C264.99 179.597 264.764 180.854 264.765 181.208C264.785 181.52 265.429 182.559 265.449 182.872C265.524 183.866 264.945 184.156 264.986 185.135C265.027 186.467 264.907 187.554 264.894 188.911C264.889 189.009 265.568 189.932 264.797 189.869C264.798 190.222 265.778 189.713 265.779 190.066C266.536 189.819 265.688 191.457 264.908 191.591C264.928 191.904 265.437 191.721 265.438 192.075C265.439 192.429 265.788 192.974 265.2 193.452C265.191 194.003 265.337 192.633 265.347 193.143L265.184 194.868C265.17 195.164 264.914 195.689 264.9 195.985C264.895 196.084 264.822 196.281 264.852 196.396C264.837 196.692 265.039 196.816 265.024 197.112C265.015 197.309 264.951 197.694 264.907 197.875C264.917 198.031 264.836 197.846 264.846 198.003C264.827 198.044 264.843 198.67 264.487 198.501C264.472 198.797 264.544 198.695 264.495 198.975C264.486 199.172 264.87 200.092 264.52 199.926C264.506 200.222 264.407 200.363 264.393 200.659C264.349 201.193 264.064 201.551 264.02 202.086C263.967 202.818 263.831 203.83 263.744 204.546C263.637 205.303 263.55 206.019 263.443 206.775C263.37 207.195 263.312 207.672 263.239 208.092C263.214 208.232 263.19 208.372 263.166 208.511C262.805 210.511 262.357 212.519 261.786 214.519C261.634 215.104 261.429 215.713 261.224 216.322C261.161 216.544 261.063 216.75 260.999 216.972C260.936 217.195 260.853 217.458 260.77 217.722C260.711 217.845 260.706 217.944 260.648 218.067C260.589 218.191 260.565 218.331 260.506 218.454C260.442 218.677 260.379 218.899 260.281 219.105C260.198 219.368 260.095 219.673 260.012 219.936C259.866 220.422 259.685 220.891 259.485 221.402C259.304 221.871 258.793 222.116 258.675 222.363C258.616 222.487 258.436 222.32 258.397 222.403C258.358 222.485 258.63 222.273 258.81 223C258.79 223.041 258.675 222.363 258.675 222.363C258.166 221.236 257.08 222.91 255.967 223.391C254.853 223.872 254.451 226.022 253.636 225.786L253.113 225.572C252.975 225.507 252.403 226.503 252.285 226.397C252.206 226.208 250.572 225.765 250.934 225.794Z" fill="url(#paint1_linear_279_13664)"/>
<path d="M128.396 144.332C127.373 143.292 126.616 141.872 126.104 140.468C125.562 138.948 125.235 137.33 124.963 135.686C124.473 132.374 124.375 128.946 124.365 125.509C124.363 124.094 124.395 122.696 124.393 121.282C124.393 120.928 124.149 119.046 124.497 118.757C130.952 113.948 137.692 109.425 144.877 106.982C155.549 103.316 166.207 100.654 176.848 99.801C177.378 99.7497 177.908 99.6985 178.418 99.6884C178.472 99.6635 178.541 99.6961 178.594 99.6713C178.894 99.6619 179.159 99.6363 179.458 99.627C180.621 99.5734 181.784 99.5198 182.961 99.5237C183.206 99.5393 183.471 99.5136 183.717 99.5291C183.839 99.5369 183.982 99.5035 184.139 99.5276C184.384 99.5431 184.595 99.5424 184.826 99.5004C185.037 99.4996 185.194 99.5237 185.405 99.523C185.581 99.5059 185.738 99.53 185.949 99.5292C186.003 99.5043 186.072 99.537 186.106 99.5533C186.263 99.5774 186.44 99.5603 186.563 99.5681C186.862 99.5587 187.142 99.5906 187.441 99.5813C187.809 99.6046 188.143 99.6116 188.545 99.6512C188.579 99.6676 188.579 99.6676 188.633 99.6427C188.722 99.6341 188.79 99.6668 188.879 99.6582C189.212 99.6652 189.492 99.6971 189.806 99.7453C190.297 99.7764 190.822 99.8238 191.347 99.8712C191.838 99.9023 192.309 99.9746 192.746 100.031C193.217 100.103 193.742 100.15 194.213 100.222C194.336 100.23 194.439 100.279 194.561 100.287C194.807 100.303 195.067 100.376 195.312 100.391C195.661 100.456 196.009 100.52 196.358 100.585C196.637 100.617 196.951 100.665 197.212 100.738C197.943 100.883 198.674 101.028 199.371 101.157L199.405 101.174C188.436 105.556 169.629 115.706 144.212 138.971C142.281 140.729 140.267 142.397 138.11 143.746C136.477 144.788 134.511 145.823 132.711 145.977C132.093 146.037 131.479 145.998 130.871 145.861C129.899 145.601 129.098 145.07 128.396 144.332Z" fill="url(#paint2_linear_279_13664)"/>
<path d="M260.49 161.103C257.254 169.511 254.725 178.203 252.618 186.894C251.594 191.708 250.88 196.669 250.293 201.539C249.928 210.199 257.508 220.48 254.281 223.103L252.675 226.498C252.347 226.392 252.648 226.519 252.285 226.397C242.94 224.934 226.973 224.065 226.962 218.374C226.889 181.612 233.627 161.522 248.773 137.267C237.115 119.87 220.541 106.346 200.77 101.502C196.323 100.4 191.725 99.8819 187.058 99.6852C213.43 99.235 244.18 99.1469 255.706 126.931C260.589 120.466 266.423 113.949 273.681 111.439C280.67 115.969 285.822 115.941 293.356 117.55C293.861 117.639 298.12 117.541 298.611 117.572C287.553 118.681 282.119 127.459 272.627 139.104C269.619 142.774 266.981 146.821 264.857 151.113C264.818 151.195 264.759 151.319 264.72 151.401C267.509 163.174 268.499 175.809 267.462 188.542C267.067 193.806 266.319 199.104 265.223 204.338C263.937 210.592 261.753 215.564 259.485 221.402C265.197 200.753 265.914 179.831 260.49 161.103ZM248.555 217.876C248.609 217.851 248.59 217.892 248.555 217.876C248.575 217.835 248.609 217.851 248.555 217.876ZM226.385 209.077C226.404 209.036 226.404 209.036 226.385 209.077V209.077Z" fill="url(#paint3_linear_279_13664)"/>
<path d="M108.19 44.601C108.043 44.7331 107.896 44.8652 107.749 44.9973C107.548 45.1543 107.225 45.3034 106.989 45.4441C105.94 46.0564 104.764 46.7597 103.435 47.6937C101.818 48.7933 100.029 50.1648 97.9263 51.8417C95.0543 54.1629 91.7171 57.0202 87.797 60.6608C76.6836 70.9307 65.6409 75.7321 56.7139 77.8534C49.5822 79.5652 43.817 79.5535 40.436 79.311C40.7692 78.9644 41.3693 69.8102 41.3693 69.8102C39.4173 66.9148 25.2247 61.5891 24.4247 61.4111C30.7722 60.286 36.4137 59.5828 42.5869 56.6082C55.546 50.3443 67.1506 40.4591 79.903 33.7437C84.7911 31.1685 90.8215 27.8737 96.3303 27.0066C96.4186 26.9981 96.4726 26.9732 96.5609 26.9646C104.724 29.3769 107.629 36.2076 108.19 44.601Z" fill="url(#paint4_linear_279_13664)"/>
<path d="M104.331 131.809C100.456 115.23 102.98 96.44 104.839 78.6966C105.64 69.0319 108.893 55.5347 108.19 44.601C107.629 36.2076 104.778 29.352 96.5953 26.981C96.6492 26.9561 96.6836 26.9724 96.7719 26.9639C105.869 27.1443 124.282 29.8808 128.172 39.2487C134.309 65.7858 126.132 94.9654 124.813 123.01C124.413 130.946 124.173 138.592 130.871 145.861C123.091 144.237 112.782 136.276 104.331 131.809Z" fill="url(#paint5_linear_279_13664)"/>
<path d="M108.224 44.5684C108.077 44.7005 107.93 44.8326 107.783 44.9647C107.582 45.1216 107.258 45.2708 107.023 45.4115C105.974 46.0238 104.797 46.7271 103.469 47.6611C101.851 48.7607 100.062 50.1322 97.9598 51.8091C95.0879 54.1303 91.7506 56.9876 87.8306 60.6282C76.7172 70.898 65.6744 75.6995 56.7475 77.8208C49.6158 79.5326 43.8505 79.5209 40.4696 79.2783C40.8027 78.9318 41.4029 69.7776 41.4029 69.7776C39.4508 66.8821 25.2583 61.5565 24.4582 61.3785C30.8057 60.2534 36.4473 59.5502 42.6204 56.5756C55.5795 50.3117 67.1841 40.4265 79.9365 33.7111C84.8247 31.1359 90.855 27.8411 96.3639 26.974C96.4522 26.9654 96.5061 26.9406 96.5944 26.932C104.758 29.3443 107.662 36.175 108.224 44.5684Z" fill="url(#paint6_linear_279_13664)"/>
<path d="M199.92 101.362C219.286 105.539 237.122 119.823 248.78 137.221C248.78 137.221 253.012 130.967 255.719 126.93C244.639 98.8168 210.961 100.941 209.925 100.365C208.89 99.7883 195.385 100.384 199.92 101.362Z" fill="url(#paint7_linear_279_13664)"/>
<path opacity="0.5" d="M104.331 131.811C100.456 115.232 103.02 96.3981 104.879 78.6548C105.68 68.9901 108.933 55.4928 108.23 44.5591C107.669 36.1657 104.818 29.3102 96.6353 26.9391C96.6892 26.9143 96.7236 26.9306 96.8119 26.922C105.909 27.1025 124.322 29.839 128.212 39.2069C134.349 65.7439 126.172 94.6627 124.853 122.707C124.452 130.644 124.345 138.687 130.92 145.869C122.448 144.023 112.841 136.239 104.331 131.811Z" fill="url(#paint8_linear_279_13664)"/>
<g style="mix-blend-mode:darken">
<path d="M251.333 225.863C251.333 225.863 250.816 225.524 250.28 224.337C249.848 223.172 250.556 224.752 250.28 224.337C250.066 223.731 249.237 221.624 249.099 220.885C249.086 220.818 249.086 220.818 249.074 220.751C248.948 220.079 248.86 219.43 248.759 218.714C248.746 218.646 248.721 218.512 248.734 218.4L248.721 218.333C248.696 217.841 248.645 217.393 248.645 216.856C248.645 216.677 248.62 216.543 248.619 216.364C248.619 216.006 248.619 215.648 248.581 215.267C248.556 215.133 248.593 214.976 248.568 214.842C248.58 214.551 248.555 214.238 248.567 213.947C248.592 213.545 248.579 213.119 248.604 212.717C248.665 211.084 248.764 209.295 248.938 207.55C249.013 206.701 249.125 205.873 249.2 205.023C249.237 204.688 249.249 204.397 249.324 204.084C249.436 203.257 249.549 202.43 249.636 201.647C249.798 200.373 249.997 199.121 250.234 197.891C250.272 197.735 250.309 197.579 250.284 197.444C250.371 197.02 250.434 196.64 250.496 196.259C250.521 196.036 250.583 195.835 250.608 195.611C250.671 195.231 250.733 194.851 250.795 194.471C250.97 193.622 251.12 192.817 251.27 192.012C251.357 191.588 251.444 191.163 251.532 190.738C251.544 190.627 251.594 190.537 251.582 190.47C251.632 190.202 251.682 189.934 251.731 189.665C251.781 189.397 251.831 189.129 251.881 188.861C252.031 188.235 252.156 187.654 252.281 187.073C252.343 186.872 252.368 186.648 252.406 186.492C252.456 186.223 252.531 185.911 252.58 185.642C252.63 185.374 252.693 185.173 252.755 184.972C252.83 184.659 252.88 184.391 252.955 184.078C253.055 183.542 253.192 183.028 253.33 182.514C253.43 182.156 253.53 181.799 253.605 181.486C253.667 181.285 253.73 181.084 253.767 180.927C253.855 180.682 253.88 180.458 253.942 180.257C254.042 179.9 254.142 179.542 254.217 179.229C254.292 178.916 254.379 178.671 254.442 178.47L254.467 178.425C254.717 177.621 254.98 176.884 255.23 176.079C255.405 175.588 255.542 175.074 255.717 174.583C255.867 174.136 256.042 173.645 256.192 173.198C256.517 172.26 256.817 171.366 257.142 170.428C257.192 170.339 257.23 170.183 257.305 170.049C257.48 169.557 257.68 169.021 257.855 168.53C257.93 168.396 257.968 168.24 258.005 168.083C258.118 167.793 258.23 167.503 258.305 167.19C258.393 166.944 258.48 166.698 258.568 166.453C258.705 166.118 258.78 165.805 258.918 165.47C259.155 164.778 259.456 164.063 259.693 163.371C259.731 163.214 259.831 163.036 259.868 162.879C260.318 161.718 260.744 160.602 261.231 159.463C261.256 159.418 261.306 159.329 261.294 159.262C261.631 158.391 262.007 157.543 262.382 156.694C262.632 156.069 262.92 155.466 263.17 154.841C263.783 153.479 264.358 152.095 265.009 150.756C265.084 150.98 265.134 151.248 265.172 151.45C265.461 152.637 265.725 153.869 265.952 155.078C265.977 155.212 266.04 155.369 266.065 155.504C266.103 155.705 266.14 155.907 266.178 156.108C266.229 156.377 266.266 156.579 266.317 156.847C266.455 157.586 266.556 158.303 266.694 159.042C266.745 159.489 266.858 159.915 266.908 160.363C266.933 160.497 266.959 160.631 266.984 160.766C267.009 161.079 267.072 161.415 267.097 161.728C267.11 161.975 267.16 162.243 267.198 162.445C267.223 162.579 267.248 162.714 267.274 162.848C267.45 164.146 267.564 165.467 267.678 166.787C267.678 166.966 267.703 167.101 267.741 167.302C267.741 167.481 267.778 167.683 267.779 167.862C267.842 168.735 267.88 169.652 267.918 170.57C267.969 171.196 267.957 171.845 267.97 172.449C267.996 173.121 267.984 173.769 268.034 174.396C268.047 174.821 268.06 175.246 268.035 175.649C268.035 176.007 268.048 176.432 268.049 176.79C268.062 177.931 268.038 179.05 268.014 180.168C267.965 181.689 267.941 183.166 267.829 184.709C267.817 184.821 267.804 184.933 267.829 185.067C267.805 185.47 267.78 185.872 267.755 186.275C267.73 186.498 267.743 186.744 267.718 186.968C267.718 187.326 267.681 187.661 267.656 188.064C267.631 188.467 267.582 188.914 267.557 189.316C267.507 189.943 267.445 190.502 267.42 191.083L267.395 191.128C267.358 191.463 267.358 191.821 267.321 192.157C267.309 192.269 267.271 192.425 267.296 192.559C267.259 192.895 267.222 193.23 267.184 193.566C267.159 193.789 267.16 193.968 267.097 194.169C267.097 194.348 267.035 194.549 267.035 194.728C267.01 194.773 267.022 194.84 266.997 194.885C266.96 195.22 266.948 195.511 266.873 195.824C266.848 196.047 266.848 196.226 266.786 196.427C266.748 196.763 266.686 197.143 266.649 197.478C266.561 198.082 266.487 198.753 266.399 199.356C266.287 200.184 266.15 201.056 266 201.86C265.826 202.71 265.676 203.514 265.501 204.364C265.389 204.833 265.289 205.369 265.176 205.839C265.139 205.995 265.101 206.152 265.064 206.308C264.514 208.543 263.864 210.777 263.077 212.988C262.864 213.636 262.589 214.306 262.314 214.975C262.226 215.221 262.101 215.444 262.014 215.69C261.926 215.936 261.814 216.226 261.701 216.516C261.626 216.65 261.614 216.762 261.539 216.896C261.463 217.03 261.426 217.186 261.351 217.32C261.263 217.566 261.176 217.811 261.051 218.034C260.938 218.325 260.801 218.66 260.688 218.95C260.488 219.486 260.25 219.999 259.988 220.557C259.75 221.071 259.537 221.54 259.387 221.807C259.312 221.941 259.262 222.031 259.212 222.12C259.126 222.324 259.002 222.479 258.709 223.095C258.351 223.848 256.776 225.548 255.901 225.943C255.026 226.338 253.645 227.378 251.333 225.863C251.91 225.971 251.397 225.208 251.333 225.863Z" fill="#39B973"/>
</g>
<g style="mix-blend-mode:multiply" opacity="0.49">
<path d="M284.351 124.729C285.17 123.902 283.776 125.433 284.351 124.729C284.957 124.139 284.615 124.477 285.471 123.63C286.166 123.052 286.843 122.515 287.573 121.953C287.72 121.821 287.901 121.705 288.083 121.589C288.156 121.523 288.21 121.498 288.284 121.432C288.338 121.407 288.411 121.341 288.465 121.316C288.72 121.135 288.955 120.994 289.21 120.812C289.392 120.696 289.592 120.539 289.774 120.424C289.955 120.308 290.137 120.192 290.318 120.076C290.681 119.845 291.058 119.671 291.421 119.439C291.529 119.389 291.637 119.34 291.764 119.249C291.926 119.174 292.088 119.099 292.215 119.009C292.377 118.934 292.485 118.884 292.647 118.81C292.863 118.71 293.059 118.652 293.274 118.552C293.274 118.552 293.274 118.552 293.309 118.569C293.525 118.469 293.74 118.37 293.937 118.312C294.044 118.262 294.187 118.228 294.295 118.179C294.348 118.154 294.402 118.129 294.437 118.145C295.187 117.896 295.933 117.745 296.659 117.635C296.747 117.627 296.855 117.577 296.978 117.585C297.208 117.543 297.473 117.517 297.718 117.533C297.983 117.507 298.194 117.507 298.44 117.522C298.739 117.513 299.019 117.545 299.298 117.576C305.653 118.121 310.906 123.643 314.774 128.357C322.909 138.277 325.044 149.033 329.504 162.255C329.504 162.255 329.504 162.255 329.538 162.271C344.016 212.657 374.128 209.743 374.128 209.743C373.517 210.764 371.037 216.25 371.037 216.25C371.614 218.493 378.064 220.697 378.771 220.983C367.202 221.041 354.879 219.228 344.822 213.443C333.257 206.842 326.225 199.212 316.597 184.899C308.608 173.786 303.702 159.998 297.085 147.77C294.394 143.06 292.081 138.176 289.189 133.623C287.178 130.498 285.012 128.988 282.275 127.272C284.351 124.729 283.427 125.86 284.351 124.729Z" fill="#44E4B3" fill-opacity="0.56"/>
</g>
<defs>
<linearGradient id="paint0_linear_279_13664" x1="52.1408" y1="-27.689" x2="298.325" y2="-48.6263" gradientUnits="userSpaceOnUse">
<stop offset="0.0913428" stop-color="#2E7ED5"/>
<stop offset="0.276043" stop-color="#3EDAE4"/>
<stop offset="0.415206" stop-color="#45CDD5"/>
<stop offset="0.514701" stop-color="#3BD2CF"/>
<stop offset="0.581271" stop-color="#45E4B2"/>
<stop offset="0.671492" stop-color="#4EEA83"/>
<stop offset="0.751455" stop-color="#98E072"/>
<stop offset="0.815358" stop-color="#C1EF5E"/>
<stop offset="0.879535" stop-color="#EBFF49"/>
</linearGradient>
<linearGradient id="paint1_linear_279_13664" x1="52.1408" y1="-27.689" x2="298.325" y2="-48.6263" gradientUnits="userSpaceOnUse">
<stop offset="0.0913428" stop-color="#2E7ED5"/>
<stop offset="0.276043" stop-color="#3EDAE4"/>
<stop offset="0.415206" stop-color="#45CDD5"/>
<stop offset="0.514701" stop-color="#3BD2CF"/>
<stop offset="0.581271" stop-color="#45E4B2"/>
<stop offset="0.671492" stop-color="#4EEA83"/>
<stop offset="0.751455" stop-color="#98E072"/>
<stop offset="0.815358" stop-color="#C1EF5E"/>
<stop offset="0.879535" stop-color="#EBFF49"/>
</linearGradient>
<linearGradient id="paint2_linear_279_13664" x1="52.1408" y1="-27.689" x2="298.325" y2="-48.6263" gradientUnits="userSpaceOnUse">
<stop offset="0.0913428" stop-color="#2E7ED5"/>
<stop offset="0.276043" stop-color="#3EDAE4"/>
<stop offset="0.415206" stop-color="#45CDD5"/>
<stop offset="0.514701" stop-color="#3BD2CF"/>
<stop offset="0.581271" stop-color="#45E4B2"/>
<stop offset="0.671492" stop-color="#4EEA83"/>
<stop offset="0.751455" stop-color="#98E072"/>
<stop offset="0.815358" stop-color="#C1EF5E"/>
<stop offset="0.879535" stop-color="#EBFF49"/>
</linearGradient>
<linearGradient id="paint3_linear_279_13664" x1="52.1408" y1="-27.689" x2="298.325" y2="-48.6263" gradientUnits="userSpaceOnUse">
<stop offset="0.0913428" stop-color="#2E7ED5"/>
<stop offset="0.276043" stop-color="#3EDAE4"/>
<stop offset="0.415206" stop-color="#45CDD5"/>
<stop offset="0.514701" stop-color="#3BD2CF"/>
<stop offset="0.581271" stop-color="#45E4B2"/>
<stop offset="0.671492" stop-color="#4EEA83"/>
<stop offset="0.751455" stop-color="#98E072"/>
<stop offset="0.815358" stop-color="#C1EF5E"/>
<stop offset="0.879535" stop-color="#EBFF49"/>
</linearGradient>
<linearGradient id="paint4_linear_279_13664" x1="52.1408" y1="-27.689" x2="298.325" y2="-48.6263" gradientUnits="userSpaceOnUse">
<stop offset="0.0913428" stop-color="#2E7ED5"/>
<stop offset="0.276043" stop-color="#3EDAE4"/>
<stop offset="0.415206" stop-color="#45CDD5"/>
<stop offset="0.514701" stop-color="#3BD2CF"/>
<stop offset="0.581271" stop-color="#45E4B2"/>
<stop offset="0.671492" stop-color="#4EEA83"/>
<stop offset="0.751455" stop-color="#98E072"/>
<stop offset="0.815358" stop-color="#C1EF5E"/>
<stop offset="0.879535" stop-color="#EBFF49"/>
</linearGradient>
<linearGradient id="paint5_linear_279_13664" x1="52.1408" y1="-27.689" x2="298.325" y2="-48.6263" gradientUnits="userSpaceOnUse">
<stop offset="0.0913428" stop-color="#2E7ED5"/>
<stop offset="0.276043" stop-color="#3EDAE4"/>
<stop offset="0.415206" stop-color="#45CDD5"/>
<stop offset="0.514701" stop-color="#3BD2CF"/>
<stop offset="0.581271" stop-color="#45E4B2"/>
<stop offset="0.671492" stop-color="#4EEA83"/>
<stop offset="0.751455" stop-color="#98E072"/>
<stop offset="0.815358" stop-color="#C1EF5E"/>
<stop offset="0.879535" stop-color="#EBFF49"/>
</linearGradient>
<linearGradient id="paint6_linear_279_13664" x1="104.905" y1="37.1104" x2="32.7763" y2="59.9848" gradientUnits="userSpaceOnUse">
<stop stop-color="#3AB9C1"/>
<stop offset="1" stop-color="#3ECAD2" stop-opacity="0"/>
</linearGradient>
<linearGradient id="paint7_linear_279_13664" x1="204.006" y1="95.6523" x2="254.967" y2="129.539" gradientUnits="userSpaceOnUse">
<stop offset="0.0760415" stop-color="#3FCE7D" stop-opacity="0"/>
<stop offset="1" stop-color="#3FCE7D"/>
</linearGradient>
<linearGradient id="paint8_linear_279_13664" x1="120.387" y1="26.7789" x2="135.657" y2="138.645" gradientUnits="userSpaceOnUse">
<stop stop-color="#42D1DA"/>
<stop offset="1" stop-color="#3AB5BD"/>
</linearGradient>
</defs>
</svg>
