<svg width="312" height="293" viewBox="0 0 312 293" fill="none" xmlns="http://www.w3.org/2000/svg">
<path d="M102.178 252.562C102.325 252.975 102.472 253.387 102.59 253.824C102.708 254.26 102.856 254.672 102.974 255.109C103.21 255.982 103.417 256.821 103.624 257.719C103.683 257.907 103.713 258.12 103.743 258.333C103.773 258.428 103.773 258.487 103.802 258.581C103.802 258.641 103.832 258.735 103.832 258.795C103.891 259.102 103.921 259.374 103.981 259.682C104.011 259.895 104.07 260.143 104.1 260.356C104.129 260.569 104.159 260.782 104.189 260.995C104.249 261.422 104.25 261.837 104.31 262.264C104.31 262.382 104.311 262.501 104.34 262.655C104.341 262.833 104.341 263.011 104.371 263.165C104.372 263.343 104.372 263.462 104.372 263.64C104.373 263.878 104.345 264.08 104.345 264.318C104.345 264.318 104.345 264.318 104.316 264.342C104.317 264.58 104.318 264.817 104.289 265.02C104.289 265.139 104.261 265.282 104.261 265.401C104.261 265.46 104.261 265.52 104.232 265.544C104.147 266.33 103.974 267.071 103.771 267.777C103.742 267.861 103.743 267.979 103.685 268.088C103.627 268.315 103.54 268.566 103.424 268.783C103.337 269.035 103.25 269.227 103.134 269.444C103.018 269.72 102.873 269.961 102.727 270.202C99.5892 275.755 92.3818 278.234 86.4861 279.792C74.0816 283.063 63.4124 280.531 49.5332 279.087C49.5332 279.087 49.5332 279.087 49.5041 279.111C-2.33801 271.32 -12.2126 299.917 -12.2126 299.917C-12.8874 298.935 -16.8444 294.399 -16.8444 294.399C-19.124 293.991 -23.8119 298.94 -24.3653 299.464C-19.6066 288.918 -12.8321 278.466 -3.38834 271.726C7.4252 263.955 17.2885 260.734 34.3095 257.932C47.7382 255.289 62.3178 256.561 76.1898 255.63C81.5922 255.142 86.9959 255.07 92.3391 254.334C96.018 253.805 98.7589 252.218 101.441 250.383C101.441 250.383 101.441 250.383 101.47 250.418C101.706 251.113 101.942 251.808 102.178 252.562Z" fill="url(#paint0_linear_279_13879)"/>
<path d="M24.4316 181.208C24.6651 181.131 24.3152 181.511 24.5488 181.493C24.9576 181.448 25.3956 181.378 25.863 181.402C26.418 181.412 30.98 181.535 31.623 181.65C31.6815 181.66 27.7622 181.593 27.8207 181.604C28.4052 181.708 28.9606 181.837 29.5744 181.977C29.6328 181.987 29.7497 182.008 29.8375 182.054L29.896 182.064C30.3053 182.197 30.6853 182.294 31.124 182.462C31.2702 182.518 31.3871 182.539 31.5333 182.594C31.8257 182.706 31.5899 182.241 31.9115 182.328C32.0284 182.349 32.6738 183.006 32.7907 183.027C33.0247 183.128 33.2004 182.782 33.4344 182.884C33.7562 183.03 34.1944 183.575 34.5161 183.722C35.8323 184.284 37.2655 184.926 38.6405 185.617C39.3133 185.945 39.957 186.298 40.6298 186.626C40.8931 186.762 41.1271 186.863 41.3612 187.024C42.0049 187.377 42.6486 187.729 43.263 188.047C44.2577 188.581 45.2233 189.14 46.1598 189.723C46.2769 189.803 46.394 189.883 46.5109 189.904C46.8328 190.11 47.1254 190.281 47.418 190.452C47.5936 190.543 47.74 190.658 47.9155 190.749C48.2081 190.92 48.5007 191.091 48.7934 191.262C49.4372 191.674 50.0518 192.051 50.6663 192.428C50.9882 192.634 51.3102 192.84 51.6321 193.046C51.7199 193.092 51.7785 193.162 51.8369 193.172C52.0418 193.298 52.2467 193.423 52.4515 193.549C52.6564 193.675 52.8612 193.801 53.066 193.926C53.5344 194.247 53.9734 194.534 54.4124 194.82C54.5588 194.935 54.7343 195.026 54.8514 195.106C55.0563 195.232 55.2904 195.393 55.4953 195.518C55.7001 195.644 55.8465 195.759 55.9929 195.874C56.2271 196.035 56.4319 196.161 56.6661 196.321C57.0758 196.573 57.4563 196.849 57.8369 197.124C58.1004 197.32 58.3638 197.516 58.598 197.676C58.7444 197.791 58.8908 197.907 59.0079 197.987C59.1836 198.137 59.3592 198.228 59.5056 198.343C59.769 198.539 60.0325 198.734 60.2667 198.895C60.5009 199.055 60.6766 199.206 60.8229 199.321L60.8523 199.356C61.4379 199.817 61.965 200.267 62.5506 200.728C62.902 201.028 63.2826 201.304 63.634 201.605C63.9561 201.87 64.3075 202.17 64.6296 202.436C65.3032 203.001 65.9474 203.532 66.6209 204.098C66.6796 204.168 66.7966 204.248 66.8846 204.353C67.236 204.653 67.6167 204.988 67.9682 205.289C68.0561 205.393 68.1732 205.474 68.2903 205.554C68.4953 205.739 68.7003 205.924 68.9345 206.085C69.1102 206.235 69.2859 206.385 69.4616 206.535C69.696 206.755 69.9301 206.916 70.1645 207.136C70.6623 207.551 71.1603 208.026 71.6581 208.442C71.7752 208.522 71.8925 208.662 72.0096 208.742C72.8297 209.483 73.6205 210.188 74.4115 210.953C74.4408 210.988 74.4994 211.057 74.5578 211.068C75.1729 211.623 75.7589 212.203 76.3448 212.783C76.7842 213.188 77.1944 213.617 77.6338 214.022C78.5713 214.962 79.538 215.877 80.4464 216.841C80.2419 216.834 80.7329 219.01 80.3865 217.663C78.3485 217.337 79.6858 217.831 76.6662 217.04C76.5493 217.019 76.2305 217.471 76.2305 217.471C75.7044 217.377 75.9754 216.82 75.8001 216.789C75.5663 216.747 75.1654 217.073 74.9316 217.031C74.2886 216.916 74.5258 217.913 72.9078 217.022C71.4031 216.873 72.4389 215.527 72.0589 215.429C71.942 215.408 71.8251 215.387 71.7082 215.366C71.4451 215.29 71.1528 215.237 70.8897 215.161C70.685 215.094 70.4512 215.052 70.2758 215.021C70.159 215 70.0421 214.979 69.9252 214.958C68.8144 214.7 67.7035 214.383 66.5925 214.065C66.4463 214.009 66.3294 213.988 66.154 213.957C66.0078 213.901 65.8325 213.87 65.6862 213.814C64.9553 213.594 64.1951 213.34 63.4349 213.085C62.9086 212.931 63.2914 214.159 62.7943 213.981C62.2387 213.792 61.4737 213.481 60.9474 213.328C60.5965 213.206 59.547 212.477 59.2253 212.331C58.9328 212.219 57.7196 212.372 57.4272 212.261C56.4914 211.915 56.4685 211.268 55.5619 210.898C54.3335 210.382 53.3946 209.82 52.1661 209.244C52.0783 209.199 50.9577 209.432 51.3354 208.758C51.0136 208.611 51.0689 209.715 50.7471 209.568C50.6576 210.36 49.5204 208.907 49.7226 208.142C49.4302 208.03 49.384 208.569 49.0623 208.423C48.7405 208.276 48.0992 208.367 47.9089 207.634C47.4116 207.397 48.5971 208.099 48.1292 207.896L46.6285 207.03C46.3652 206.894 45.9935 206.443 45.7302 206.307C45.6425 206.262 45.4934 206.113 45.3765 206.092C45.1132 205.956 44.9173 206.088 44.654 205.952C44.4785 205.861 44.1555 205.643 44.0091 205.528C43.8629 205.472 44.0642 205.475 43.918 205.419C43.8887 205.384 43.3122 205.139 43.6143 204.885C43.351 204.749 43.414 204.856 43.1799 204.696C43.0043 204.605 42.008 204.571 42.3041 204.323C42.0408 204.186 41.9544 204.038 41.691 203.902C41.2229 203.64 41.0162 203.231 40.548 202.97C39.9044 202.617 39.0405 202.072 38.426 201.695C37.7821 201.283 37.1676 200.906 36.5237 200.494C36.1725 200.253 35.7628 200.002 35.4115 199.761C35.2944 199.68 35.1774 199.6 35.0603 199.52C33.3918 198.361 31.7523 197.118 30.1709 195.766C29.7024 195.386 29.2337 194.946 28.765 194.505C28.5893 194.355 28.4427 194.181 28.267 194.031C28.0913 193.88 27.8863 193.695 27.6812 193.51C27.5933 193.405 27.5055 193.36 27.4176 193.255C27.3297 193.151 27.2126 193.07 27.1246 192.965C26.9489 192.815 26.7732 192.665 26.6266 192.491C26.4216 192.305 26.1873 192.085 25.9822 191.9C25.6015 191.565 25.2499 191.205 24.8689 190.811C24.5173 190.451 24.507 189.884 24.3311 189.675C24.2432 189.57 24.4698 189.475 24.4112 189.405C24.3525 189.335 24.4321 189.671 23.6967 189.533C23.6674 189.498 24.3311 189.675 24.3311 189.675C25.5684 189.681 24.4981 187.997 24.5236 186.784C24.5492 185.572 22.7613 184.312 23.3143 183.668L23.7264 183.282C23.8429 183.184 23.1755 182.249 23.3214 182.186C23.5259 182.193 24.6078 180.891 24.4316 181.208Z" fill="url(#paint1_linear_279_13879)"/>
<path d="M149.48 103.655C150.852 103.158 152.458 103.06 153.948 103.178C155.555 103.317 157.163 103.694 158.77 104.13C161.986 105.062 165.145 106.398 168.275 107.819C169.562 108.405 170.82 109.016 172.107 109.603C172.428 109.749 174.241 110.311 174.359 110.748C176.048 118.618 177.357 126.629 176.591 134.179C175.486 145.408 173.474 156.208 169.824 166.24C169.65 166.743 169.476 167.246 169.273 167.714C169.273 167.774 169.215 167.822 169.215 167.882C169.099 168.158 169.012 168.409 168.896 168.686C168.461 169.765 168.026 170.845 167.533 171.914C167.417 172.131 167.33 172.382 167.214 172.599C167.156 172.707 167.127 172.851 167.04 172.983C166.924 173.2 166.836 173.392 166.779 173.619C166.692 173.812 166.604 173.944 166.517 174.137C166.459 174.304 166.372 174.437 166.285 174.629C166.285 174.689 166.227 174.738 166.198 174.762C166.111 174.895 166.053 175.063 165.995 175.171C165.879 175.447 165.733 175.688 165.617 175.964C165.443 176.289 165.298 176.59 165.095 176.939C165.065 176.964 165.065 176.964 165.066 177.023C165.037 177.107 164.978 177.156 164.949 177.24C164.804 177.54 164.659 177.781 164.484 178.047C164.252 178.48 163.991 178.938 163.729 179.396C163.497 179.829 163.235 180.227 163.002 180.601C162.741 181 162.479 181.457 162.218 181.856C162.159 181.964 162.072 182.038 162.014 182.146C161.898 182.363 161.723 182.569 161.607 182.785C161.403 183.075 161.2 183.366 160.996 183.656C160.851 183.897 160.676 184.162 160.502 184.369C160.065 184.973 159.629 185.578 159.222 186.158L159.193 186.182C159.771 174.384 158.363 153.059 147.778 120.268C146.981 117.781 146.302 115.255 145.973 112.733C145.704 110.815 145.581 108.597 146.189 106.895C146.392 106.308 146.682 105.766 147.061 105.27C147.701 104.494 148.517 103.987 149.48 103.655Z" fill="url(#paint2_linear_279_13879)"/>
<path d="M79.2859 216.805C72.9864 210.366 66.1334 204.45 59.1064 198.919C55.1542 195.986 50.9398 193.273 46.755 190.714C39.0317 186.78 26.5292 189.396 25.4861 185.371L23.0671 182.499C23.3 182.244 23.0593 182.465 23.3214 182.186C28.5385 174.297 35.9698 160.138 41.1494 162.494C74.6109 177.719 90.078 192.202 105.836 216.064C126.506 212.699 145.698 203.251 158.327 187.287C161.179 183.701 163.562 179.735 165.682 175.573C155.122 199.743 142.413 227.743 112.352 226.669C116.2 233.798 119.7 241.814 118.964 249.459C111.938 253.93 109.82 258.626 105.223 264.808C104.932 265.231 103.25 269.145 103.017 269.578C106.608 259.061 100.886 250.469 94.2439 236.993C92.1571 232.731 89.5743 228.648 86.5545 224.932C86.4959 224.862 86.4079 224.758 86.3493 224.688C74.4829 222.327 62.5813 217.972 51.4335 211.733C46.8106 209.185 42.3036 206.301 38.0002 203.127C32.8478 199.356 29.2348 195.302 24.8689 190.811C41.2712 204.594 59.9987 213.948 79.2859 216.805ZM32.6213 182.338C32.6215 182.398 32.5922 182.363 32.6213 182.338C32.6507 182.373 32.6215 182.398 32.6213 182.338ZM49.844 165.836C49.8733 165.871 49.8733 165.871 49.844 165.836V165.836Z" fill="url(#paint3_linear_279_13879)"/>
<path d="M248.579 126.762C248.52 126.574 248.461 126.385 248.402 126.196C248.343 125.948 248.342 125.592 248.312 125.32C248.192 124.111 248.041 122.748 247.745 121.152C247.417 119.223 246.914 117.026 246.264 114.417C245.347 110.839 244.137 106.616 242.457 101.537C237.74 87.159 237.967 75.1197 239.751 66.1192C241.16 58.9217 243.569 53.6837 245.196 50.7099C245.372 51.157 253.447 55.5104 253.447 55.5104C256.892 54.9395 267.639 44.248 268.133 43.5945C266.516 49.8349 264.809 55.2577 264.947 62.1088C265.253 76.4991 269.416 91.1639 270.219 105.554C270.527 111.07 271.015 117.925 269.512 123.295C269.484 123.379 269.484 123.438 269.455 123.522C263.866 129.942 256.446 129.743 248.579 126.762Z" fill="url(#paint4_linear_279_13879)"/>
<path d="M170.878 86.9799C187.567 90.3515 203.604 100.463 218.967 109.533C227.423 114.281 238.344 122.854 248.579 126.762C256.446 129.743 263.866 130.002 269.426 123.547C269.426 123.606 269.397 123.631 269.368 123.714C265.42 131.912 255.272 147.519 245.135 147.16C218.45 141.703 195.315 122.13 170.361 109.266C163.31 105.601 156.457 102.202 147.061 105.27C151.773 98.8714 163.301 92.8069 170.878 86.9799Z" fill="url(#paint5_linear_279_13879)"/>
<path d="M248.595 126.806C248.536 126.618 248.477 126.429 248.418 126.241C248.359 125.992 248.358 125.636 248.328 125.364C248.207 124.155 248.057 122.792 247.76 121.196C247.433 119.268 246.93 117.07 246.279 114.461C245.363 110.884 244.153 106.66 242.473 101.581C237.756 87.203 237.982 75.1637 239.766 66.1633C241.176 58.9658 243.585 53.7278 245.211 50.754C245.388 51.2011 253.463 55.5545 253.463 55.5545C256.908 54.9836 267.654 44.2921 268.149 43.6386C266.532 49.8789 264.825 55.3018 264.962 62.1528C265.269 76.5432 269.431 91.2079 270.234 105.598C270.543 111.114 271.031 117.969 269.528 123.339C269.499 123.423 269.499 123.482 269.47 123.566C263.881 129.986 256.461 129.787 248.595 126.806Z" fill="url(#paint6_linear_279_13879)"/>
<path d="M158.808 186.572C146.954 202.446 126.546 212.724 105.875 216.09C105.875 216.09 109.802 222.54 112.347 226.681C142.522 228.298 154.598 196.787 155.553 196.086C156.508 195.384 161.584 182.855 158.808 186.572Z" fill="url(#paint7_linear_279_13879)"/>
<path opacity="0.5" d="M170.876 86.9792C187.565 90.3509 203.626 100.516 218.988 109.587C227.444 114.335 238.366 122.907 248.601 126.816C256.467 129.796 263.887 130.056 269.447 123.6C269.447 123.66 269.418 123.684 269.389 123.768C265.441 131.966 255.294 147.573 245.157 147.214C218.472 141.757 195.574 122.292 170.619 109.428C163.569 105.762 156.299 102.32 147.033 105.312C152.235 98.375 163.31 92.8759 170.876 86.9792Z" fill="url(#paint8_linear_279_13879)"/>
<g style="mix-blend-mode:darken">
<path d="M24.2023 181.542C24.2023 181.542 24.726 181.213 26.0288 181.219C27.2671 181.311 25.536 181.298 26.0288 181.219C26.6678 181.277 28.9286 181.4 29.6582 181.581C29.7245 181.598 29.7245 181.598 29.7908 181.614C30.4541 181.779 31.0812 181.969 31.7746 182.175C31.841 182.192 31.9736 182.225 32.0701 182.283L32.1364 182.299C32.5947 182.481 33.0229 182.621 33.5114 182.844C33.6742 182.918 33.8068 182.951 33.9696 183.026C34.2953 183.174 34.6209 183.323 34.9828 183.447C35.1154 183.48 35.2421 183.579 35.3747 183.612C35.6341 183.744 35.9295 183.851 36.1889 183.983C36.5447 184.173 36.9366 184.339 37.2925 184.528C38.7519 185.264 40.338 186.098 41.8518 186.981C42.5936 187.403 43.2993 187.849 44.0411 188.27C44.3306 188.444 44.5899 188.576 44.8433 188.774C45.549 189.22 46.2546 189.666 46.9301 190.071C48.0218 190.748 49.0773 191.45 50.0966 192.177C50.2233 192.276 50.35 192.376 50.4826 192.409C50.8325 192.665 51.1521 192.879 51.4718 193.094C51.6648 193.21 51.8216 193.35 52.0146 193.466C52.3343 193.681 52.654 193.896 52.9736 194.11C53.6733 194.623 54.3428 195.093 55.0123 195.564C55.3622 195.82 55.712 196.077 56.0619 196.333C56.1584 196.39 56.2187 196.473 56.285 196.49C56.5082 196.647 56.7314 196.803 56.9546 196.96C57.1777 197.117 57.4009 197.274 57.6241 197.431C58.1307 197.828 58.6073 198.183 59.0838 198.538C59.2406 198.679 59.4336 198.794 59.5603 198.894C59.7835 199.051 60.0368 199.249 60.26 199.406C60.4831 199.563 60.64 199.703 60.7968 199.844C61.0502 200.042 61.2733 200.199 61.5267 200.397C61.973 200.711 62.3832 201.05 62.7934 201.389C63.0769 201.628 63.3604 201.868 63.6138 202.066C63.7706 202.207 63.9275 202.347 64.0541 202.446C64.2412 202.628 64.4341 202.744 64.591 202.884C64.8745 203.124 65.158 203.363 65.4114 203.562C65.6647 203.76 65.8517 203.942 66.0086 204.082L66.0387 204.123C66.6661 204.685 67.2272 205.231 67.8546 205.792C68.2286 206.156 68.6388 206.495 69.0128 206.858C69.3567 207.181 69.7307 207.544 70.0746 207.866C70.7925 208.552 71.4802 209.197 72.1981 209.882C72.2584 209.965 72.3851 210.064 72.4756 210.188C72.8496 210.552 73.2538 210.957 73.6279 211.32C73.7184 211.444 73.8451 211.543 73.9717 211.642C74.1889 211.866 74.4061 212.089 74.6595 212.287C74.8465 212.469 75.0335 212.65 75.2205 212.832C75.4679 213.097 75.7212 213.295 75.9686 213.559C76.4995 214.063 77.0244 214.634 77.5553 215.138C77.6819 215.237 77.8026 215.402 77.9293 215.501C78.7981 216.394 79.6366 217.245 80.4692 218.162C80.4994 218.203 80.5597 218.286 80.6261 218.302C81.2776 218.972 81.8931 219.666 82.5085 220.36C82.973 220.847 83.4014 221.36 83.866 221.847C84.8495 222.971 85.8691 224.07 86.8164 225.219C86.5813 225.194 86.316 225.128 86.117 225.079C84.9171 224.848 83.6871 224.575 82.4933 224.278C82.3606 224.245 82.1918 224.237 82.0591 224.204C81.8602 224.155 81.6612 224.105 81.4622 224.056C81.1969 223.99 80.9979 223.94 80.7326 223.874C80.003 223.693 79.3096 223.486 78.58 223.305C78.1519 223.165 77.7178 223.09 77.2897 222.95C77.157 222.917 77.0244 222.884 76.8917 222.851C76.5962 222.744 76.2646 222.661 75.9691 222.554C75.74 222.463 75.4747 222.397 75.2757 222.348C75.143 222.315 75.0104 222.282 74.8778 222.249C73.6235 221.869 72.3753 221.423 71.1271 220.977C70.9642 220.903 70.8316 220.87 70.6326 220.821C70.4698 220.746 70.2708 220.697 70.108 220.622C69.2879 220.317 68.4376 219.97 67.5873 219.623C66.9964 219.409 66.4114 219.128 65.8566 218.889C65.2355 218.633 64.6505 218.352 64.0596 218.137C63.6676 217.972 63.2756 217.807 62.9198 217.617C62.5941 217.468 62.2022 217.303 61.8765 217.154C60.8332 216.692 59.8261 216.205 58.819 215.718C57.4561 215.04 56.1233 214.404 54.7663 213.661C54.6698 213.603 54.5733 213.545 54.4407 213.512C54.0849 213.322 53.729 213.133 53.3732 212.943C53.1802 212.827 52.9511 212.736 52.7581 212.62C52.4324 212.472 52.1429 212.298 51.7871 212.108C51.4313 211.918 51.0453 211.687 50.6895 211.497C50.1406 211.192 49.6582 210.902 49.1395 210.638L49.1093 210.597C48.8198 210.423 48.4942 210.275 48.2047 210.101C48.1082 210.043 47.9815 209.944 47.8489 209.911C47.5594 209.738 47.2699 209.564 46.9804 209.391C46.7874 209.275 46.6245 209.201 46.4677 209.061C46.3049 208.986 46.148 208.846 45.9852 208.771C45.955 208.73 45.8887 208.714 45.8586 208.672C45.5691 208.499 45.3097 208.367 45.0564 208.168C44.8634 208.053 44.7006 207.978 44.5437 207.838C44.2542 207.665 43.9345 207.45 43.6451 207.276C43.1324 206.946 42.5534 206.599 42.0407 206.268C41.3351 205.822 40.5992 205.335 39.9297 204.864C39.23 204.352 38.5605 203.881 37.8609 203.369C37.4808 203.071 37.0345 202.758 36.6545 202.46C36.5278 202.361 36.4011 202.262 36.2745 202.163C34.4709 200.733 32.7094 199.213 31.0263 197.577C30.5256 197.114 30.0309 196.586 29.5361 196.057C29.3491 195.875 29.1983 195.668 29.0112 195.487C28.8242 195.305 28.607 195.082 28.3898 194.859C28.2993 194.735 28.2028 194.677 28.1123 194.553C28.0218 194.429 27.8951 194.33 27.8046 194.206C27.6176 194.024 27.4306 193.842 27.2797 193.636C27.0625 193.413 26.8151 193.148 26.598 192.925C26.1938 192.52 25.8257 192.09 25.4275 191.619C25.0594 191.19 24.7215 190.801 24.5405 190.553C24.45 190.429 24.3896 190.347 24.3293 190.264C24.1799 190.101 24.0898 189.924 23.6519 189.402C23.1158 188.763 22.2253 186.623 22.2299 185.663C22.2344 184.703 21.863 183.015 24.2023 181.542C23.8647 182.022 24.772 181.873 24.2023 181.542Z" fill="#39B973"/>
</g>
<g style="mix-blend-mode:multiply" opacity="0.49">
<path d="M102.44 253.633C102.851 254.723 102.039 252.818 102.44 253.633C102.725 254.431 102.559 253.979 102.974 255.109C103.21 255.982 103.417 256.821 103.625 257.718C103.684 257.907 103.713 258.12 103.743 258.333C103.773 258.428 103.773 258.487 103.802 258.581C103.803 258.641 103.832 258.735 103.832 258.794C103.892 259.102 103.922 259.374 103.981 259.682C104.011 259.895 104.07 260.143 104.1 260.356C104.13 260.569 104.16 260.782 104.189 260.995C104.249 261.422 104.25 261.837 104.31 262.263C104.31 262.382 104.311 262.501 104.34 262.655C104.341 262.833 104.342 263.011 104.371 263.165C104.372 263.343 104.372 263.462 104.373 263.64C104.373 263.878 104.345 264.08 104.345 264.318C104.345 264.318 104.345 264.318 104.316 264.342C104.317 264.58 104.318 264.817 104.289 265.02C104.29 265.139 104.261 265.282 104.261 265.401C104.261 265.46 104.261 265.52 104.232 265.544C104.147 266.33 103.974 267.071 103.772 267.777C103.743 267.861 103.743 267.979 103.685 268.088C103.627 268.315 103.54 268.566 103.424 268.783C103.337 269.035 103.25 269.227 103.134 269.443C103.018 269.72 102.873 269.961 102.727 270.202C99.5895 275.754 92.3821 278.234 86.4863 279.791C74.0819 283.063 63.4126 280.531 49.5335 279.087C49.5335 279.087 49.5335 279.087 49.5043 279.111C-2.33776 271.32 -12.2123 299.917 -12.2123 299.917C-12.8871 298.935 -16.8441 294.398 -16.8441 294.398C-19.1238 293.991 -23.8117 298.94 -24.3651 299.464C-19.6064 288.918 -12.8319 278.466 -3.38813 271.726C7.4254 263.955 17.2887 260.734 34.3098 257.932C47.7384 255.289 62.3181 256.561 76.19 255.63C81.5924 255.142 86.9961 255.07 92.3393 254.334C96.0182 253.805 98.2918 252.463 100.991 250.688C102.44 253.633 101.796 252.323 102.44 253.633Z" fill="#44E4B3" fill-opacity="0.56"/>
</g>
<defs>
<linearGradient id="paint0_linear_279_13879" x1="337.632" y1="105.859" x2="254.276" y2="338.447" gradientUnits="userSpaceOnUse">
<stop offset="0.0913428" stop-color="#2E7ED5"/>
<stop offset="0.276043" stop-color="#3EDAE4"/>
<stop offset="0.415206" stop-color="#45CDD5"/>
<stop offset="0.514701" stop-color="#3BD2CF"/>
<stop offset="0.581271" stop-color="#45E4B2"/>
<stop offset="0.671492" stop-color="#4EEA83"/>
<stop offset="0.751455" stop-color="#98E072"/>
<stop offset="0.815358" stop-color="#C1EF5E"/>
<stop offset="0.879535" stop-color="#EBFF49"/>
</linearGradient>
<linearGradient id="paint1_linear_279_13879" x1="337.632" y1="105.859" x2="254.276" y2="338.447" gradientUnits="userSpaceOnUse">
<stop offset="0.0913428" stop-color="#2E7ED5"/>
<stop offset="0.276043" stop-color="#3EDAE4"/>
<stop offset="0.415206" stop-color="#45CDD5"/>
<stop offset="0.514701" stop-color="#3BD2CF"/>
<stop offset="0.581271" stop-color="#45E4B2"/>
<stop offset="0.671492" stop-color="#4EEA83"/>
<stop offset="0.751455" stop-color="#98E072"/>
<stop offset="0.815358" stop-color="#C1EF5E"/>
<stop offset="0.879535" stop-color="#EBFF49"/>
</linearGradient>
<linearGradient id="paint2_linear_279_13879" x1="337.632" y1="105.859" x2="254.276" y2="338.447" gradientUnits="userSpaceOnUse">
<stop offset="0.0913428" stop-color="#2E7ED5"/>
<stop offset="0.276043" stop-color="#3EDAE4"/>
<stop offset="0.415206" stop-color="#45CDD5"/>
<stop offset="0.514701" stop-color="#3BD2CF"/>
<stop offset="0.581271" stop-color="#45E4B2"/>
<stop offset="0.671492" stop-color="#4EEA83"/>
<stop offset="0.751455" stop-color="#98E072"/>
<stop offset="0.815358" stop-color="#C1EF5E"/>
<stop offset="0.879535" stop-color="#EBFF49"/>
</linearGradient>
<linearGradient id="paint3_linear_279_13879" x1="337.632" y1="105.859" x2="254.276" y2="338.447" gradientUnits="userSpaceOnUse">
<stop offset="0.0913428" stop-color="#2E7ED5"/>
<stop offset="0.276043" stop-color="#3EDAE4"/>
<stop offset="0.415206" stop-color="#45CDD5"/>
<stop offset="0.514701" stop-color="#3BD2CF"/>
<stop offset="0.581271" stop-color="#45E4B2"/>
<stop offset="0.671492" stop-color="#4EEA83"/>
<stop offset="0.751455" stop-color="#98E072"/>
<stop offset="0.815358" stop-color="#C1EF5E"/>
<stop offset="0.879535" stop-color="#EBFF49"/>
</linearGradient>
<linearGradient id="paint4_linear_279_13879" x1="337.632" y1="105.859" x2="254.276" y2="338.447" gradientUnits="userSpaceOnUse">
<stop offset="0.0913428" stop-color="#2E7ED5"/>
<stop offset="0.276043" stop-color="#3EDAE4"/>
<stop offset="0.415206" stop-color="#45CDD5"/>
<stop offset="0.514701" stop-color="#3BD2CF"/>
<stop offset="0.581271" stop-color="#45E4B2"/>
<stop offset="0.671492" stop-color="#4EEA83"/>
<stop offset="0.751455" stop-color="#98E072"/>
<stop offset="0.815358" stop-color="#C1EF5E"/>
<stop offset="0.879535" stop-color="#EBFF49"/>
</linearGradient>
<linearGradient id="paint5_linear_279_13879" x1="337.632" y1="105.859" x2="254.276" y2="338.447" gradientUnits="userSpaceOnUse">
<stop offset="0.0913428" stop-color="#2E7ED5"/>
<stop offset="0.276043" stop-color="#3EDAE4"/>
<stop offset="0.415206" stop-color="#45CDD5"/>
<stop offset="0.514701" stop-color="#3BD2CF"/>
<stop offset="0.581271" stop-color="#45E4B2"/>
<stop offset="0.671492" stop-color="#4EEA83"/>
<stop offset="0.751455" stop-color="#98E072"/>
<stop offset="0.815358" stop-color="#C1EF5E"/>
<stop offset="0.879535" stop-color="#EBFF49"/>
</linearGradient>
<linearGradient id="paint6_linear_279_13879" x1="256.758" y1="126.89" x2="265.957" y2="51.7827" gradientUnits="userSpaceOnUse">
<stop stop-color="#3AB9C1"/>
<stop offset="1" stop-color="#3ECAD2" stop-opacity="0"/>
</linearGradient>
<linearGradient id="paint7_linear_279_13879" x1="162.301" y1="192.663" x2="110.287" y2="224.912" gradientUnits="userSpaceOnUse">
<stop offset="0.0760415" stop-color="#3FCE7D" stop-opacity="0"/>
<stop offset="1" stop-color="#3FCE7D"/>
</linearGradient>
<linearGradient id="paint8_linear_279_13879" x1="259.713" y1="145.267" x2="151.632" y2="112.624" gradientUnits="userSpaceOnUse">
<stop stop-color="#42D1DA"/>
<stop offset="1" stop-color="#3AB5BD"/>
</linearGradient>
</defs>
</svg>
