<svg width="430" height="557" viewBox="0 0 430 557" fill="none" xmlns="http://www.w3.org/2000/svg">
<g opacity="0.5">
<g filter="url(#filter0_f_484_1073)">
<ellipse cx="150.734" cy="258.165" rx="26.3965" ry="22.437" transform="rotate(-5.33726 150.734 258.165)" fill="#00ADEE"/>
</g>
<g filter="url(#filter1_f_484_1073)">
<ellipse cx="181.294" cy="245.887" rx="43.5542" ry="33.6555" transform="rotate(-13.1725 181.294 245.887)" fill="#00D900"/>
</g>
<g filter="url(#filter2_f_484_1073)">
<ellipse cx="189.937" cy="263.964" rx="43.5542" ry="33.6555" transform="rotate(-13.1725 189.937 263.964)" fill="#00D900"/>
</g>
<g opacity="0.4" filter="url(#filter3_f_484_1073)">
<path fill-rule="evenodd" clip-rule="evenodd" d="M103.888 342.74C130.233 364.583 172.104 357.547 197.41 327.025C222.717 296.503 221.875 254.053 195.53 232.21C169.186 210.368 127.314 217.404 102.008 247.926C76.7018 278.447 77.5434 320.898 103.888 342.74Z" fill="#00ADEE"/>
</g>
<g opacity="0.4" filter="url(#filter4_f_484_1073)">
<path fill-rule="evenodd" clip-rule="evenodd" d="M144.429 280.189C152.513 286.891 165.361 284.732 173.126 275.366C180.891 266.001 180.633 252.975 172.549 246.273C164.466 239.571 151.618 241.73 143.853 251.095C136.087 260.461 136.346 273.486 144.429 280.189Z" fill="#00ADEE"/>
</g>
<g filter="url(#filter5_f_484_1073)">
<ellipse cx="125.763" cy="228.355" rx="26.3965" ry="22.437" transform="rotate(-5.33726 125.763 228.355)" fill="#00ADEE"/>
</g>
<g filter="url(#filter6_f_484_1073)">
<ellipse cx="216.556" cy="207.059" rx="43.5542" ry="33.6555" transform="rotate(-13.1725 216.556 207.059)" fill="#00D900"/>
</g>
<g filter="url(#filter7_f_484_1073)">
<ellipse cx="225.425" cy="251.018" rx="43.5542" ry="33.6555" transform="rotate(-13.1725 225.425 251.018)" fill="#00D900"/>
</g>
<g opacity="0.4" filter="url(#filter8_f_484_1073)">
<path fill-rule="evenodd" clip-rule="evenodd" d="M85.1139 407.92C111.459 429.762 153.33 422.726 178.636 392.204C203.942 361.683 203.101 319.233 176.756 297.39C150.412 275.547 108.54 282.583 83.234 313.105C57.9277 343.627 58.7694 386.077 85.1139 407.92Z" fill="#00ADEE"/>
</g>
<g opacity="0.4" filter="url(#filter9_f_484_1073)">
<path fill-rule="evenodd" clip-rule="evenodd" d="M27.7442 413.277C54.0888 435.12 95.9601 428.084 121.266 397.562C146.573 367.04 145.731 324.59 119.386 302.747C93.0419 280.904 51.1706 287.94 25.8643 318.462C0.557973 348.984 1.39963 391.434 27.7442 413.277Z" fill="#00ADEE"/>
</g>
<g opacity="0.4" filter="url(#filter10_f_484_1073)">
<path fill-rule="evenodd" clip-rule="evenodd" d="M170.323 284.498C178.406 291.2 191.254 289.042 199.019 279.676C206.785 270.31 206.526 257.285 198.443 250.583C190.359 243.88 177.511 246.039 169.746 255.405C161.981 264.77 162.239 277.796 170.323 284.498Z" fill="#00ADEE"/>
</g>
</g>
<defs>
<filter id="filter0_f_484_1073" x="-50.749" y="60.5718" width="402.965" height="395.185" filterUnits="userSpaceOnUse" color-interpolation-filters="sRGB">
<feFlood flood-opacity="0" result="BackgroundImageFix"/>
<feBlend mode="normal" in="SourceGraphic" in2="BackgroundImageFix" result="shape"/>
<feGaussianBlur stdDeviation="87.5583" result="effect1_foregroundBlur_484_1073"/>
</filter>
<filter id="filter1_f_484_1073" x="-36.9265" y="36.521" width="436.44" height="418.731" filterUnits="userSpaceOnUse" color-interpolation-filters="sRGB">
<feFlood flood-opacity="0" result="BackgroundImageFix"/>
<feBlend mode="normal" in="SourceGraphic" in2="BackgroundImageFix" result="shape"/>
<feGaussianBlur stdDeviation="87.5583" result="effect1_foregroundBlur_484_1073"/>
</filter>
<filter id="filter2_f_484_1073" x="-28.2835" y="54.5986" width="436.44" height="418.731" filterUnits="userSpaceOnUse" color-interpolation-filters="sRGB">
<feFlood flood-opacity="0" result="BackgroundImageFix"/>
<feBlend mode="normal" in="SourceGraphic" in2="BackgroundImageFix" result="shape"/>
<feGaussianBlur stdDeviation="87.5583" result="effect1_foregroundBlur_484_1073"/>
</filter>
<filter id="filter3_f_484_1073" x="-46.9923" y="88.9534" width="393.403" height="397.044" filterUnits="userSpaceOnUse" color-interpolation-filters="sRGB">
<feFlood flood-opacity="0" result="BackgroundImageFix"/>
<feBlend mode="normal" in="SourceGraphic" in2="BackgroundImageFix" result="shape"/>
<feGaussianBlur stdDeviation="65.2789" result="effect1_foregroundBlur_484_1073"/>
</filter>
<filter id="filter4_f_484_1073" x="7.63573" y="111.818" width="301.707" height="302.825" filterUnits="userSpaceOnUse" color-interpolation-filters="sRGB">
<feFlood flood-opacity="0" result="BackgroundImageFix"/>
<feBlend mode="normal" in="SourceGraphic" in2="BackgroundImageFix" result="shape"/>
<feGaussianBlur stdDeviation="65.2789" result="effect1_foregroundBlur_484_1073"/>
</filter>
<filter id="filter5_f_484_1073" x="-75.7195" y="30.762" width="402.965" height="395.185" filterUnits="userSpaceOnUse" color-interpolation-filters="sRGB">
<feFlood flood-opacity="0" result="BackgroundImageFix"/>
<feBlend mode="normal" in="SourceGraphic" in2="BackgroundImageFix" result="shape"/>
<feGaussianBlur stdDeviation="87.5583" result="effect1_foregroundBlur_484_1073"/>
</filter>
<filter id="filter6_f_484_1073" x="-1.66425" y="-2.30685" width="436.44" height="418.731" filterUnits="userSpaceOnUse" color-interpolation-filters="sRGB">
<feFlood flood-opacity="0" result="BackgroundImageFix"/>
<feBlend mode="normal" in="SourceGraphic" in2="BackgroundImageFix" result="shape"/>
<feGaussianBlur stdDeviation="87.5583" result="effect1_foregroundBlur_484_1073"/>
</filter>
<filter id="filter7_f_484_1073" x="7.2049" y="41.652" width="436.44" height="418.731" filterUnits="userSpaceOnUse" color-interpolation-filters="sRGB">
<feFlood flood-opacity="0" result="BackgroundImageFix"/>
<feBlend mode="normal" in="SourceGraphic" in2="BackgroundImageFix" result="shape"/>
<feGaussianBlur stdDeviation="87.5583" result="effect1_foregroundBlur_484_1073"/>
</filter>
<filter id="filter8_f_484_1073" x="-65.7664" y="154.133" width="393.403" height="397.044" filterUnits="userSpaceOnUse" color-interpolation-filters="sRGB">
<feFlood flood-opacity="0" result="BackgroundImageFix"/>
<feBlend mode="normal" in="SourceGraphic" in2="BackgroundImageFix" result="shape"/>
<feGaussianBlur stdDeviation="65.2789" result="effect1_foregroundBlur_484_1073"/>
</filter>
<filter id="filter9_f_484_1073" x="-123.136" y="159.49" width="393.403" height="397.044" filterUnits="userSpaceOnUse" color-interpolation-filters="sRGB">
<feFlood flood-opacity="0" result="BackgroundImageFix"/>
<feBlend mode="normal" in="SourceGraphic" in2="BackgroundImageFix" result="shape"/>
<feGaussianBlur stdDeviation="65.2789" result="effect1_foregroundBlur_484_1073"/>
</filter>
<filter id="filter10_f_484_1073" x="33.5289" y="116.128" width="301.707" height="302.825" filterUnits="userSpaceOnUse" color-interpolation-filters="sRGB">
<feFlood flood-opacity="0" result="BackgroundImageFix"/>
<feBlend mode="normal" in="SourceGraphic" in2="BackgroundImageFix" result="shape"/>
<feGaussianBlur stdDeviation="65.2789" result="effect1_foregroundBlur_484_1073"/>
</filter>
</defs>
</svg>
