<svg width="226" height="662" viewBox="0 0 226 662" fill="none" xmlns="http://www.w3.org/2000/svg">
<g opacity="0.3">
<g filter="url(#filter0_f_484_515)">
<ellipse cx="327.381" cy="363.964" rx="34.645" ry="29.4483" transform="rotate(168.058 327.381 363.964)" fill="#00ADEE"/>
</g>
<g filter="url(#filter1_f_484_515)">
<ellipse cx="289.392" cy="384.588" rx="57.1643" ry="44.1724" transform="rotate(160.223 289.392 384.588)" fill="#00D900"/>
</g>
<g filter="url(#filter2_f_484_515)">
<ellipse cx="275.389" cy="362.322" rx="57.1643" ry="44.1724" transform="rotate(160.223 275.389 362.322)" fill="#00D900"/>
</g>
<g opacity="0.4" filter="url(#filter3_f_484_515)">
<path fill-rule="evenodd" clip-rule="evenodd" d="M375.69 246.621C338.045 222.12 284.517 237.614 256.13 281.228C227.744 324.841 235.249 380.06 272.894 404.561C310.539 429.062 364.067 413.568 392.454 369.954C420.84 326.34 413.335 271.122 375.69 246.621Z" fill="#00ADEE"/>
</g>
<g opacity="0.4" filter="url(#filter4_f_484_515)">
<path fill-rule="evenodd" clip-rule="evenodd" d="M332.274 334.295C320.723 326.777 304.298 331.531 295.588 344.914C286.878 358.296 289.181 375.24 300.732 382.758C312.283 390.276 328.708 385.522 337.418 372.139C346.128 358.756 343.825 341.813 332.274 334.295Z" fill="#00ADEE"/>
</g>
<g filter="url(#filter5_f_484_515)">
<ellipse cx="364.435" cy="399.059" rx="34.645" ry="29.4483" transform="rotate(168.058 364.435 399.059)" fill="#00ADEE"/>
</g>
<g filter="url(#filter6_f_484_515)">
<ellipse cx="249.273" cy="440.531" rx="57.1643" ry="44.1724" transform="rotate(160.223 249.273 440.531)" fill="#00D900"/>
</g>
<g filter="url(#filter7_f_484_515)">
<ellipse cx="231.077" cy="384.555" rx="57.1643" ry="44.1724" transform="rotate(160.223 231.077 384.555)" fill="#00D900"/>
</g>
<g opacity="0.4" filter="url(#filter8_f_484_515)">
<path fill-rule="evenodd" clip-rule="evenodd" d="M390.326 158.813C352.681 134.311 299.153 149.805 270.766 193.419C242.38 237.033 249.886 292.251 287.53 316.753C325.175 341.254 378.704 325.76 407.09 282.146C435.476 238.532 427.971 183.314 390.326 158.813Z" fill="#00ADEE"/>
</g>
<g opacity="0.4" filter="url(#filter9_f_484_515)">
<path fill-rule="evenodd" clip-rule="evenodd" d="M464.314 143.168C426.669 118.667 373.141 134.161 344.754 177.775C316.368 221.389 323.873 276.607 361.518 301.108C399.163 325.609 452.691 310.115 481.078 266.502C509.464 222.888 501.959 167.669 464.314 143.168Z" fill="#00ADEE"/>
</g>
<g opacity="0.4" filter="url(#filter10_f_484_515)">
<path fill-rule="evenodd" clip-rule="evenodd" d="M297.865 332.585C286.314 325.066 269.889 329.821 261.178 343.203C252.468 356.586 254.771 373.53 266.322 381.048C277.873 388.566 294.298 383.812 303.009 370.429C311.719 357.046 309.416 340.103 297.865 332.585Z" fill="#00ADEE"/>
</g>
</g>
<defs>
<filter id="filter0_f_484_515" x="117.82" y="159.151" width="419.122" height="409.626" filterUnits="userSpaceOnUse" color-interpolation-filters="sRGB">
<feFlood flood-opacity="0" result="BackgroundImageFix"/>
<feBlend mode="normal" in="SourceGraphic" in2="BackgroundImageFix" result="shape"/>
<feGaussianBlur stdDeviation="87.5583" result="effect1_foregroundBlur_484_515"/>
</filter>
<filter id="filter1_f_484_515" x="58.4308" y="163.614" width="461.922" height="441.949" filterUnits="userSpaceOnUse" color-interpolation-filters="sRGB">
<feFlood flood-opacity="0" result="BackgroundImageFix"/>
<feBlend mode="normal" in="SourceGraphic" in2="BackgroundImageFix" result="shape"/>
<feGaussianBlur stdDeviation="87.5583" result="effect1_foregroundBlur_484_515"/>
</filter>
<filter id="filter2_f_484_515" x="44.4284" y="141.348" width="461.922" height="441.949" filterUnits="userSpaceOnUse" color-interpolation-filters="sRGB">
<feFlood flood-opacity="0" result="BackgroundImageFix"/>
<feBlend mode="normal" in="SourceGraphic" in2="BackgroundImageFix" result="shape"/>
<feGaussianBlur stdDeviation="87.5583" result="effect1_foregroundBlur_484_515"/>
</filter>
<filter id="filter3_f_484_515" x="108.361" y="104.439" width="431.862" height="442.304" filterUnits="userSpaceOnUse" color-interpolation-filters="sRGB">
<feFlood flood-opacity="0" result="BackgroundImageFix"/>
<feBlend mode="normal" in="SourceGraphic" in2="BackgroundImageFix" result="shape"/>
<feGaussianBlur stdDeviation="65.2789" result="effect1_foregroundBlur_484_515"/>
</filter>
<filter id="filter4_f_484_515" x="159.749" y="200.17" width="313.509" height="316.713" filterUnits="userSpaceOnUse" color-interpolation-filters="sRGB">
<feFlood flood-opacity="0" result="BackgroundImageFix"/>
<feBlend mode="normal" in="SourceGraphic" in2="BackgroundImageFix" result="shape"/>
<feGaussianBlur stdDeviation="65.2789" result="effect1_foregroundBlur_484_515"/>
</filter>
<filter id="filter5_f_484_515" x="154.874" y="194.246" width="419.122" height="409.626" filterUnits="userSpaceOnUse" color-interpolation-filters="sRGB">
<feFlood flood-opacity="0" result="BackgroundImageFix"/>
<feBlend mode="normal" in="SourceGraphic" in2="BackgroundImageFix" result="shape"/>
<feGaussianBlur stdDeviation="87.5583" result="effect1_foregroundBlur_484_515"/>
</filter>
<filter id="filter6_f_484_515" x="18.3122" y="219.556" width="461.922" height="441.949" filterUnits="userSpaceOnUse" color-interpolation-filters="sRGB">
<feFlood flood-opacity="0" result="BackgroundImageFix"/>
<feBlend mode="normal" in="SourceGraphic" in2="BackgroundImageFix" result="shape"/>
<feGaussianBlur stdDeviation="87.5583" result="effect1_foregroundBlur_484_515"/>
</filter>
<filter id="filter7_f_484_515" x="0.115906" y="163.581" width="461.922" height="441.949" filterUnits="userSpaceOnUse" color-interpolation-filters="sRGB">
<feFlood flood-opacity="0" result="BackgroundImageFix"/>
<feBlend mode="normal" in="SourceGraphic" in2="BackgroundImageFix" result="shape"/>
<feGaussianBlur stdDeviation="87.5583" result="effect1_foregroundBlur_484_515"/>
</filter>
<filter id="filter8_f_484_515" x="122.997" y="16.6307" width="431.862" height="442.304" filterUnits="userSpaceOnUse" color-interpolation-filters="sRGB">
<feFlood flood-opacity="0" result="BackgroundImageFix"/>
<feBlend mode="normal" in="SourceGraphic" in2="BackgroundImageFix" result="shape"/>
<feGaussianBlur stdDeviation="65.2789" result="effect1_foregroundBlur_484_515"/>
</filter>
<filter id="filter9_f_484_515" x="196.985" y="0.986328" width="431.862" height="442.304" filterUnits="userSpaceOnUse" color-interpolation-filters="sRGB">
<feFlood flood-opacity="0" result="BackgroundImageFix"/>
<feBlend mode="normal" in="SourceGraphic" in2="BackgroundImageFix" result="shape"/>
<feGaussianBlur stdDeviation="65.2789" result="effect1_foregroundBlur_484_515"/>
</filter>
<filter id="filter10_f_484_515" x="125.339" y="198.46" width="313.509" height="316.713" filterUnits="userSpaceOnUse" color-interpolation-filters="sRGB">
<feFlood flood-opacity="0" result="BackgroundImageFix"/>
<feBlend mode="normal" in="SourceGraphic" in2="BackgroundImageFix" result="shape"/>
<feGaussianBlur stdDeviation="65.2789" result="effect1_foregroundBlur_484_515"/>
</filter>
</defs>
</svg>
